<svg xmlns="http://www.w3.org/2000/svg" width="96" height="96" viewBox="0 0 96 96">
  <defs>
    <linearGradient id="g" x1="0" x2="1" y1="0" y2="1">
      <stop offset="0" stop-color="#fecdd3"/>
      <stop offset="1" stop-color="#fb7185"/>
    </linearGradient>
    <filter id="glow" x="-40%" y="-40%" width="180%" height="180%">
      <feGaussianBlur stdDeviation="2.2" result="b"/>
      <feColorMatrix in="b" type="matrix" values="1 0 0 0 0  0 1 0 0 0  0 0 1 0 0  0 0 0 .65 0" result="c"/>
      <feMerge>
        <feMergeNode in="c"/>
        <feMergeNode in="SourceGraphic"/>
      </feMerge>
    </filter>
  </defs>
  <rect width="96" height="96" rx="18" fill="rgba(255,255,255,0.04)"/>
  <g transform="translate(7,14)" filter="url(#glow)">
    <path d="M56 18c-10-10-22-14-34-6C9 20 5 36 18 44c12 8 28 6 38-2 6-5 9-16 0-24z" fill="url(#g)" stroke="rgba(2,6,23,.28)" stroke-width="2" stroke-linejoin="round"/>
    <path d="M14 22c-8 2-14 8-14 14 0 0 7-2 14-6 2-1 4-3 6-5-2-2-4-2-6-3z" fill="#fda4af" stroke="rgba(2,6,23,.20)" stroke-width="2" stroke-linejoin="round"/>
    <circle cx="47" cy="26" r="4.4" fill="rgba(2,6,23,.72)"/>
    <circle cx="46" cy="25" r="1.8" fill="rgba(255,255,255,.85)"/>
    <path d="M36 37c-7 4-16 4-22 0" fill="none" stroke="rgba(255,255,255,.48)" stroke-width="3" stroke-linecap="round"/>
    <path d="M31 14c-3 6-4 13-1 19" fill="none" stroke="rgba(255,255,255,.30)" stroke-width="2" stroke-linecap="round"/>
    <path d="M42 14c7 3 12 8 15 14" fill="none" stroke="rgba(255,255,255,.28)" stroke-width="2" stroke-linecap="round"/>
  </g>
</svg>
