<svg xmlns="http://www.w3.org/2000/svg" width="760" height="420" viewBox="0 0 760 420" font-family="system-ui,Segoe UI,Roboto,sans-serif">
<rect width="760" height="420" fill="#0b0f14"/>
<line x1="8" y1="12.0" x2="752" y2="12.0" stroke="#1c2530" stroke-width="1"/>
<line x1="8" y1="108.0" x2="752" y2="108.0" stroke="#1c2530" stroke-width="1"/>
<line x1="8" y1="204.0" x2="752" y2="204.0" stroke="#1c2530" stroke-width="1"/>
<line x1="8" y1="300.0" x2="752" y2="300.0" stroke="#1c2530" stroke-width="1"/>
<line x1="8" y1="396.0" x2="752" y2="396.0" stroke="#1c2530" stroke-width="1"/>
<polyline points="169.2,335.5 177.5,336.6 185.7,338.8 194.0,339.4 202.3,338.2 210.5,337.3 218.8,336.9 227.1,334.9 235.3,333.1 243.6,331.7 251.9,330.2 260.1,331.2 268.4,331.9 276.7,331.9 284.9,332.2 293.2,330.8 301.5,327.3 309.7,323.7 318.0,318.7 326.3,314.1 334.5,311.3 342.8,307.9 351.1,304.8 359.3,302.6 367.6,300.9 375.9,300.8 384.1,300.5 392.4,298.7 400.7,295.5 408.9,291.4 417.2,284.3 425.5,274.4 433.7,265.3 442.0,256.0 450.3,244.1 458.5,234.8 466.8,224.5 475.1,215.1 483.3,208.5 491.6,203.0 499.9,197.2 508.1,193.3 516.4,189.9 524.7,185.5 532.9,179.9 541.2,173.8 549.5,168.0 557.7,163.1 566.0,157.6 574.3,152.1 582.5,148.7 590.8,146.2 599.1,142.8 607.3,142.2 615.6,144.2 623.9,145.7 632.1,149.4 640.4,151.1 648.7,151.7 656.9,151.1 665.2,149.9 673.5,148.1 681.7,143.9 690.0,140.3 698.3,138.1 706.5,134.1 714.8,128.0 723.1,122.7 731.3,120.2 739.6,118.2 747.9,116.1" fill="none" stroke="#fbbf24" stroke-width="1.5" opacity="0.9"/>
<polyline points="499.9,281.3 508.1,279.3 516.4,277.9 524.7,275.8 532.9,273.0 541.2,270.6 549.5,268.5 557.7,265.6 566.0,262.1 574.3,258.4 582.5,254.4 590.8,250.6 599.1,246.7 607.3,243.4 615.6,240.2 623.9,237.1 632.1,233.7 640.4,230.0 648.7,226.3 656.9,222.7 665.2,219.5 673.5,216.4 681.7,212.9 690.0,209.5 698.3,206.3 706.5,202.9 714.8,198.8 723.1,194.8 731.3,191.1 739.6,187.2 747.9,183.0" fill="none" stroke="#60a5fa" stroke-width="1.5" opacity="0.9"/>
<line x1="12.1" y1="269.8" x2="12.1" y2="305.6" stroke="#ef5350" stroke-width="1"/>
<rect x="9.5" y="274.1" width="5.3" height="17.2" fill="#ef5350" rx="1"/>
<line x1="20.4" y1="285.2" x2="20.4" y2="306.0" stroke="#ef5350" stroke-width="1"/>
<rect x="17.8" y="292.3" width="5.3" height="1.2" fill="#ef5350" rx="1"/>
<line x1="28.7" y1="286.9" x2="28.7" y2="321.0" stroke="#ef5350" stroke-width="1"/>
<rect x="26.0" y="289.6" width="5.3" height="24.4" fill="#ef5350" rx="1"/>
<line x1="36.9" y1="320.0" x2="36.9" y2="349.7" stroke="#ef5350" stroke-width="1"/>
<rect x="34.3" y="322.1" width="5.3" height="18.9" fill="#ef5350" rx="1"/>
<line x1="45.2" y1="333.2" x2="45.2" y2="355.2" stroke="#ef5350" stroke-width="1"/>
<rect x="42.6" y="340.9" width="5.3" height="1.2" fill="#ef5350" rx="1"/>
<line x1="53.5" y1="309.9" x2="53.5" y2="335.8" stroke="#26a69a" stroke-width="1"/>
<rect x="50.8" y="314.3" width="5.3" height="20.3" fill="#26a69a" rx="1"/>
<line x1="61.7" y1="318.2" x2="61.7" y2="335.9" stroke="#ef5350" stroke-width="1"/>
<rect x="59.1" y="324.0" width="5.3" height="9.1" fill="#ef5350" rx="1"/>
<line x1="70.0" y1="330.6" x2="70.0" y2="351.8" stroke="#ef5350" stroke-width="1"/>
<rect x="67.4" y="343.3" width="5.3" height="2.5" fill="#ef5350" rx="1"/>
<line x1="78.3" y1="312.1" x2="78.3" y2="339.7" stroke="#26a69a" stroke-width="1"/>
<rect x="75.6" y="331.3" width="5.3" height="1.2" fill="#26a69a" rx="1"/>
<line x1="86.5" y1="325.8" x2="86.5" y2="348.7" stroke="#26a69a" stroke-width="1"/>
<rect x="83.9" y="333.9" width="5.3" height="10.9" fill="#26a69a" rx="1"/>
<line x1="94.8" y1="311.3" x2="94.8" y2="331.2" stroke="#26a69a" stroke-width="1"/>
<rect x="92.2" y="319.1" width="5.3" height="11.3" fill="#26a69a" rx="1"/>
<line x1="103.1" y1="319.5" x2="103.1" y2="335.9" stroke="#ef5350" stroke-width="1"/>
<rect x="100.4" y="323.8" width="5.3" height="11.1" fill="#ef5350" rx="1"/>
<line x1="111.3" y1="335.6" x2="111.3" y2="356.3" stroke="#ef5350" stroke-width="1"/>
<rect x="108.7" y="344.9" width="5.3" height="7.8" fill="#ef5350" rx="1"/>
<line x1="119.6" y1="338.8" x2="119.6" y2="348.5" stroke="#26a69a" stroke-width="1"/>
<rect x="117.0" y="344.6" width="5.3" height="1.2" fill="#26a69a" rx="1"/>
<line x1="127.9" y1="339.9" x2="127.9" y2="360.1" stroke="#ef5350" stroke-width="1"/>
<rect x="125.2" y="346.4" width="5.3" height="3.8" fill="#ef5350" rx="1"/>
<line x1="136.1" y1="349.2" x2="136.1" y2="373.9" stroke="#ef5350" stroke-width="1"/>
<rect x="133.5" y="349.2" width="5.3" height="13.5" fill="#ef5350" rx="1"/>
<line x1="144.4" y1="357.6" x2="144.4" y2="372.1" stroke="#ef5350" stroke-width="1"/>
<rect x="141.8" y="360.1" width="5.3" height="9.6" fill="#ef5350" rx="1"/>
<line x1="152.7" y1="358.1" x2="152.7" y2="375.4" stroke="#26a69a" stroke-width="1"/>
<rect x="150.0" y="369.1" width="5.3" height="1.2" fill="#26a69a" rx="1"/>
<line x1="160.9" y1="332.2" x2="160.9" y2="367.8" stroke="#26a69a" stroke-width="1"/>
<rect x="158.3" y="352.3" width="5.3" height="7.5" fill="#26a69a" rx="1"/>
<line x1="169.2" y1="313.4" x2="169.2" y2="345.2" stroke="#26a69a" stroke-width="1"/>
<rect x="166.6" y="315.7" width="5.3" height="27.4" fill="#26a69a" rx="1"/>
<line x1="177.5" y1="307.7" x2="177.5" y2="323.2" stroke="#ef5350" stroke-width="1"/>
<rect x="174.8" y="312.2" width="5.3" height="1.2" fill="#ef5350" rx="1"/>
<line x1="185.7" y1="305.4" x2="185.7" y2="339.3" stroke="#ef5350" stroke-width="1"/>
<rect x="183.1" y="313.6" width="5.3" height="24.1" fill="#ef5350" rx="1"/>
<line x1="194.0" y1="320.0" x2="194.0" y2="342.8" stroke="#26a69a" stroke-width="1"/>
<rect x="191.4" y="324.6" width="5.3" height="13.2" fill="#26a69a" rx="1"/>
<line x1="202.3" y1="313.1" x2="202.3" y2="329.8" stroke="#26a69a" stroke-width="1"/>
<rect x="199.6" y="318.2" width="5.3" height="6.3" fill="#26a69a" rx="1"/>
<line x1="210.5" y1="306.3" x2="210.5" y2="323.1" stroke="#ef5350" stroke-width="1"/>
<rect x="207.9" y="308.1" width="5.3" height="14.1" fill="#ef5350" rx="1"/>
<line x1="218.8" y1="306.9" x2="218.8" y2="333.9" stroke="#26a69a" stroke-width="1"/>
<rect x="216.2" y="307.9" width="5.3" height="14.3" fill="#26a69a" rx="1"/>
<line x1="227.1" y1="285.5" x2="227.1" y2="302.0" stroke="#26a69a" stroke-width="1"/>
<rect x="224.4" y="292.4" width="5.3" height="7.9" fill="#26a69a" rx="1"/>
<line x1="235.3" y1="291.0" x2="235.3" y2="315.8" stroke="#ef5350" stroke-width="1"/>
<rect x="232.7" y="292.4" width="5.3" height="16.9" fill="#ef5350" rx="1"/>
<line x1="243.6" y1="293.1" x2="243.6" y2="316.2" stroke="#26a69a" stroke-width="1"/>
<rect x="241.0" y="302.6" width="5.3" height="7.8" fill="#26a69a" rx="1"/>
<line x1="251.9" y1="299.2" x2="251.9" y2="311.9" stroke="#26a69a" stroke-width="1"/>
<rect x="249.2" y="305.6" width="5.3" height="4.6" fill="#26a69a" rx="1"/>
<line x1="260.1" y1="301.4" x2="260.1" y2="342.7" stroke="#ef5350" stroke-width="1"/>
<rect x="257.5" y="303.0" width="5.3" height="35.3" fill="#ef5350" rx="1"/>
<line x1="268.4" y1="343.6" x2="268.4" y2="365.1" stroke="#26a69a" stroke-width="1"/>
<rect x="265.8" y="349.1" width="5.3" height="1.9" fill="#26a69a" rx="1"/>
<line x1="276.7" y1="337.2" x2="276.7" y2="363.1" stroke="#26a69a" stroke-width="1"/>
<rect x="274.0" y="352.8" width="5.3" height="1.9" fill="#26a69a" rx="1"/>
<line x1="284.9" y1="340.6" x2="284.9" y2="358.2" stroke="#26a69a" stroke-width="1"/>
<rect x="282.3" y="350.7" width="5.3" height="4.7" fill="#26a69a" rx="1"/>
<line x1="293.2" y1="318.3" x2="293.2" y2="334.8" stroke="#26a69a" stroke-width="1"/>
<rect x="290.6" y="321.3" width="5.3" height="6.5" fill="#26a69a" rx="1"/>
<line x1="301.5" y1="279.1" x2="301.5" y2="316.3" stroke="#26a69a" stroke-width="1"/>
<rect x="298.8" y="293.8" width="5.3" height="16.6" fill="#26a69a" rx="1"/>
<line x1="309.7" y1="280.7" x2="309.7" y2="307.0" stroke="#ef5350" stroke-width="1"/>
<rect x="307.1" y="293.8" width="5.3" height="3.6" fill="#ef5350" rx="1"/>
<line x1="318.0" y1="264.3" x2="318.0" y2="307.9" stroke="#26a69a" stroke-width="1"/>
<rect x="315.4" y="268.5" width="5.3" height="27.6" fill="#26a69a" rx="1"/>
<line x1="326.3" y1="245.0" x2="326.3" y2="268.2" stroke="#ef5350" stroke-width="1"/>
<rect x="323.6" y="257.4" width="5.3" height="2.2" fill="#ef5350" rx="1"/>
<line x1="334.5" y1="241.0" x2="334.5" y2="261.7" stroke="#ef5350" stroke-width="1"/>
<rect x="331.9" y="250.6" width="5.3" height="10.0" fill="#ef5350" rx="1"/>
<line x1="342.8" y1="245.1" x2="342.8" y2="265.4" stroke="#26a69a" stroke-width="1"/>
<rect x="340.2" y="245.4" width="5.3" height="5.2" fill="#26a69a" rx="1"/>
<line x1="351.1" y1="253.6" x2="351.1" y2="288.9" stroke="#ef5350" stroke-width="1"/>
<rect x="348.4" y="256.5" width="5.3" height="20.0" fill="#ef5350" rx="1"/>
<line x1="359.3" y1="272.3" x2="359.3" y2="304.2" stroke="#ef5350" stroke-width="1"/>
<rect x="356.7" y="272.3" width="5.3" height="7.1" fill="#ef5350" rx="1"/>
<line x1="367.6" y1="277.9" x2="367.6" y2="306.2" stroke="#26a69a" stroke-width="1"/>
<rect x="365.0" y="285.2" width="5.3" height="1.2" fill="#26a69a" rx="1"/>
<line x1="375.9" y1="293.9" x2="375.9" y2="324.7" stroke="#ef5350" stroke-width="1"/>
<rect x="373.2" y="299.7" width="5.3" height="20.3" fill="#ef5350" rx="1"/>
<line x1="384.1" y1="301.7" x2="384.1" y2="325.3" stroke="#26a69a" stroke-width="1"/>
<rect x="381.5" y="302.6" width="5.3" height="14.0" fill="#26a69a" rx="1"/>
<line x1="392.4" y1="251.8" x2="392.4" y2="284.3" stroke="#26a69a" stroke-width="1"/>
<rect x="389.8" y="256.1" width="5.3" height="20.6" fill="#26a69a" rx="1"/>
<line x1="400.7" y1="232.4" x2="400.7" y2="258.0" stroke="#26a69a" stroke-width="1"/>
<rect x="398.0" y="244.6" width="5.3" height="6.6" fill="#26a69a" rx="1"/>
<line x1="408.9" y1="201.6" x2="408.9" y2="245.2" stroke="#26a69a" stroke-width="1"/>
<rect x="406.3" y="221.4" width="5.3" height="21.6" fill="#26a69a" rx="1"/>
<line x1="417.2" y1="160.2" x2="417.2" y2="203.5" stroke="#26a69a" stroke-width="1"/>
<rect x="414.6" y="162.9" width="5.3" height="38.2" fill="#26a69a" rx="1"/>
<line x1="425.5" y1="139.5" x2="425.5" y2="178.7" stroke="#26a69a" stroke-width="1"/>
<rect x="422.8" y="139.9" width="5.3" height="31.8" fill="#26a69a" rx="1"/>
<line x1="433.7" y1="131.6" x2="433.7" y2="171.8" stroke="#ef5350" stroke-width="1"/>
<rect x="431.1" y="137.0" width="5.3" height="30.1" fill="#ef5350" rx="1"/>
<line x1="442.0" y1="165.7" x2="442.0" y2="184.3" stroke="#26a69a" stroke-width="1"/>
<rect x="439.4" y="167.0" width="5.3" height="4.4" fill="#26a69a" rx="1"/>
<line x1="450.3" y1="112.5" x2="450.3" y2="166.9" stroke="#26a69a" stroke-width="1"/>
<rect x="447.6" y="112.8" width="5.3" height="43.4" fill="#26a69a" rx="1"/>
<line x1="458.5" y1="122.8" x2="458.5" y2="155.3" stroke="#ef5350" stroke-width="1"/>
<rect x="455.9" y="129.6" width="5.3" height="5.4" fill="#ef5350" rx="1"/>
<line x1="466.8" y1="74.7" x2="466.8" y2="106.8" stroke="#26a69a" stroke-width="1"/>
<rect x="464.2" y="87.7" width="5.3" height="14.0" fill="#26a69a" rx="1"/>
<line x1="475.1" y1="79.6" x2="475.1" y2="112.3" stroke="#ef5350" stroke-width="1"/>
<rect x="472.4" y="79.6" width="5.3" height="31.1" fill="#ef5350" rx="1"/>
<line x1="483.3" y1="110.4" x2="483.3" y2="142.2" stroke="#ef5350" stroke-width="1"/>
<rect x="480.7" y="127.3" width="5.3" height="9.1" fill="#ef5350" rx="1"/>
<line x1="491.6" y1="123.2" x2="491.6" y2="157.8" stroke="#ef5350" stroke-width="1"/>
<rect x="489.0" y="129.9" width="5.3" height="19.2" fill="#ef5350" rx="1"/>
<line x1="499.9" y1="133.8" x2="499.9" y2="154.0" stroke="#ef5350" stroke-width="1"/>
<rect x="497.2" y="143.3" width="5.3" height="1.2" fill="#ef5350" rx="1"/>
<line x1="508.1" y1="152.6" x2="508.1" y2="178.0" stroke="#ef5350" stroke-width="1"/>
<rect x="505.5" y="157.7" width="5.3" height="10.0" fill="#ef5350" rx="1"/>
<line x1="516.4" y1="150.0" x2="516.4" y2="214.4" stroke="#ef5350" stroke-width="1"/>
<rect x="513.8" y="190.3" width="5.3" height="18.4" fill="#ef5350" rx="1"/>
<line x1="524.7" y1="169.6" x2="524.7" y2="212.9" stroke="#26a69a" stroke-width="1"/>
<rect x="522.0" y="191.0" width="5.3" height="6.4" fill="#26a69a" rx="1"/>
<line x1="532.9" y1="157.0" x2="532.9" y2="179.1" stroke="#26a69a" stroke-width="1"/>
<rect x="530.3" y="172.6" width="5.3" height="2.7" fill="#26a69a" rx="1"/>
<line x1="541.2" y1="165.8" x2="541.2" y2="199.0" stroke="#ef5350" stroke-width="1"/>
<rect x="538.6" y="178.8" width="5.3" height="19.1" fill="#ef5350" rx="1"/>
<line x1="549.5" y1="182.8" x2="549.5" y2="217.7" stroke="#26a69a" stroke-width="1"/>
<rect x="546.8" y="187.1" width="5.3" height="18.9" fill="#26a69a" rx="1"/>
<line x1="557.7" y1="153.2" x2="557.7" y2="183.6" stroke="#26a69a" stroke-width="1"/>
<rect x="555.1" y="157.1" width="5.3" height="17.2" fill="#26a69a" rx="1"/>
<line x1="566.0" y1="129.8" x2="566.0" y2="164.4" stroke="#26a69a" stroke-width="1"/>
<rect x="563.4" y="135.4" width="5.3" height="24.1" fill="#26a69a" rx="1"/>
<line x1="574.3" y1="108.8" x2="574.3" y2="133.3" stroke="#26a69a" stroke-width="1"/>
<rect x="571.6" y="110.7" width="5.3" height="11.8" fill="#26a69a" rx="1"/>
<line x1="582.5" y1="78.4" x2="582.5" y2="122.9" stroke="#26a69a" stroke-width="1"/>
<rect x="579.9" y="95.5" width="5.3" height="20.3" fill="#26a69a" rx="1"/>
<line x1="590.8" y1="42.0" x2="590.8" y2="94.1" stroke="#ef5350" stroke-width="1"/>
<rect x="588.2" y="71.2" width="5.3" height="19.5" fill="#ef5350" rx="1"/>
<line x1="599.1" y1="75.2" x2="599.1" y2="102.4" stroke="#ef5350" stroke-width="1"/>
<rect x="596.4" y="80.2" width="5.3" height="17.8" fill="#ef5350" rx="1"/>
<line x1="607.3" y1="127.9" x2="607.3" y2="163.5" stroke="#ef5350" stroke-width="1"/>
<rect x="604.7" y="136.8" width="5.3" height="19.2" fill="#ef5350" rx="1"/>
<line x1="615.6" y1="140.1" x2="615.6" y2="171.1" stroke="#26a69a" stroke-width="1"/>
<rect x="613.0" y="152.8" width="5.3" height="2.0" fill="#26a69a" rx="1"/>
<line x1="623.9" y1="144.5" x2="623.9" y2="185.4" stroke="#ef5350" stroke-width="1"/>
<rect x="621.2" y="161.1" width="5.3" height="3.3" fill="#ef5350" rx="1"/>
<line x1="632.1" y1="157.8" x2="632.1" y2="188.2" stroke="#26a69a" stroke-width="1"/>
<rect x="629.5" y="161.3" width="5.3" height="3.1" fill="#26a69a" rx="1"/>
<line x1="640.4" y1="135.1" x2="640.4" y2="164.1" stroke="#26a69a" stroke-width="1"/>
<rect x="637.8" y="145.4" width="5.3" height="14.0" fill="#26a69a" rx="1"/>
<line x1="648.7" y1="118.4" x2="648.7" y2="159.2" stroke="#ef5350" stroke-width="1"/>
<rect x="646.0" y="120.8" width="5.3" height="28.3" fill="#ef5350" rx="1"/>
<line x1="656.9" y1="133.4" x2="656.9" y2="160.2" stroke="#26a69a" stroke-width="1"/>
<rect x="654.3" y="135.6" width="5.3" height="20.0" fill="#26a69a" rx="1"/>
<line x1="665.2" y1="119.1" x2="665.2" y2="139.7" stroke="#26a69a" stroke-width="1"/>
<rect x="662.6" y="120.2" width="5.3" height="16.4" fill="#26a69a" rx="1"/>
<line x1="673.5" y1="106.2" x2="673.5" y2="140.8" stroke="#ef5350" stroke-width="1"/>
<rect x="670.8" y="123.7" width="5.3" height="8.5" fill="#ef5350" rx="1"/>
<line x1="681.7" y1="122.6" x2="681.7" y2="159.3" stroke="#26a69a" stroke-width="1"/>
<rect x="679.1" y="125.9" width="5.3" height="29.0" fill="#26a69a" rx="1"/>
<line x1="690.0" y1="115.4" x2="690.0" y2="133.1" stroke="#26a69a" stroke-width="1"/>
<rect x="687.4" y="118.6" width="5.3" height="2.1" fill="#26a69a" rx="1"/>
<line x1="698.3" y1="120.8" x2="698.3" y2="136.0" stroke="#ef5350" stroke-width="1"/>
<rect x="695.6" y="127.1" width="5.3" height="1.8" fill="#ef5350" rx="1"/>
<line x1="706.5" y1="105.4" x2="706.5" y2="142.9" stroke="#26a69a" stroke-width="1"/>
<rect x="703.9" y="116.9" width="5.3" height="20.9" fill="#26a69a" rx="1"/>
<line x1="714.8" y1="60.9" x2="714.8" y2="93.2" stroke="#26a69a" stroke-width="1"/>
<rect x="712.2" y="64.6" width="5.3" height="20.6" fill="#26a69a" rx="1"/>
<line x1="723.1" y1="32.6" x2="723.1" y2="67.9" stroke="#26a69a" stroke-width="1"/>
<rect x="720.4" y="50.9" width="5.3" height="2.5" fill="#26a69a" rx="1"/>
<line x1="731.3" y1="50.9" x2="731.3" y2="87.0" stroke="#ef5350" stroke-width="1"/>
<rect x="728.7" y="50.9" width="5.3" height="36.0" fill="#ef5350" rx="1"/>
<line x1="739.6" y1="55.3" x2="739.6" y2="89.2" stroke="#26a69a" stroke-width="1"/>
<rect x="737.0" y="69.8" width="5.3" height="14.4" fill="#26a69a" rx="1"/>
<line x1="747.9" y1="47.5" x2="747.9" y2="79.8" stroke="#26a69a" stroke-width="1"/>
<rect x="745.2" y="53.1" width="5.3" height="19.7" fill="#26a69a" rx="1"/>
<text x="8" y="414" fill="#8b98a9" font-size="11">276.47</text>
<text x="752" y="414" text-anchor="end" fill="#8b98a9" font-size="11">219.11</text>
</svg>