<svg xmlns="http://www.w3.org/2000/svg" width="760" height="420" viewBox="0 0 760 420" font-family="system-ui,Segoe UI,Roboto,sans-serif">
<rect width="760" height="420" fill="#0b0f14"/>
<line x1="8" y1="12.0" x2="752" y2="12.0" stroke="#1c2530" stroke-width="1"/>
<line x1="8" y1="108.0" x2="752" y2="108.0" stroke="#1c2530" stroke-width="1"/>
<line x1="8" y1="204.0" x2="752" y2="204.0" stroke="#1c2530" stroke-width="1"/>
<line x1="8" y1="300.0" x2="752" y2="300.0" stroke="#1c2530" stroke-width="1"/>
<line x1="8" y1="396.0" x2="752" y2="396.0" stroke="#1c2530" stroke-width="1"/>
<polyline points="169.2,163.2 177.5,170.7 185.7,179.1 194.0,187.0 202.3,195.1 210.5,198.1 218.8,198.9 227.1,199.0 235.3,199.4 243.6,197.4 251.9,191.4 260.1,187.6 268.4,183.6 276.7,181.6 284.9,179.2 293.2,179.0 301.5,181.1 309.7,182.1 318.0,176.7 326.3,172.7 334.5,164.5 342.8,157.8 351.1,150.2 359.3,144.4 367.6,140.0 375.9,137.1 384.1,138.7 392.4,142.6 400.7,148.2 408.9,157.7 417.2,170.4 425.5,179.3 433.7,189.3 442.0,190.7 450.3,190.1 458.5,190.7 466.8,190.2 475.1,190.9 483.3,194.7 491.6,193.9 499.9,198.4 508.1,202.6 516.4,207.6 524.7,208.6 532.9,209.5 541.2,213.0 549.5,213.5 557.7,213.8 566.0,215.5 574.3,213.9 582.5,211.0 590.8,207.8 599.1,203.4 607.3,205.0 615.6,209.8 623.9,211.3 632.1,214.7 640.4,215.6 648.7,217.2 656.9,222.7 665.2,226.1 673.5,229.2 681.7,233.8 690.0,240.7 698.3,246.9 706.5,255.9 714.8,261.8 723.1,264.2 731.3,265.8 739.6,267.7 747.9,270.5" fill="none" stroke="#fbbf24" stroke-width="1.5" opacity="0.9"/>
<polyline points="499.9,175.4 508.1,177.0 516.4,179.0 524.7,180.0 532.9,181.5 541.2,182.7 549.5,183.7 557.7,185.1 566.0,187.7 574.3,189.7 582.5,191.0 590.8,191.6 599.1,192.1 607.3,192.4 615.6,193.1 623.9,193.6 632.1,195.3 640.4,196.2 648.7,196.2 656.9,196.4 665.2,196.3 673.5,196.5 681.7,197.2 690.0,197.9 698.3,198.8 706.5,202.0 714.8,204.7 723.1,206.9 731.3,209.8 739.6,213.1 747.9,217.3" fill="none" stroke="#60a5fa" stroke-width="1.5" opacity="0.9"/>
<line x1="12.1" y1="79.7" x2="12.1" y2="118.2" stroke="#ef5350" stroke-width="1"/>
<rect x="9.5" y="107.9" width="5.3" height="4.1" fill="#ef5350" rx="1"/>
<line x1="20.4" y1="68.2" x2="20.4" y2="108.8" stroke="#ef5350" stroke-width="1"/>
<rect x="17.8" y="84.2" width="5.3" height="14.3" fill="#ef5350" rx="1"/>
<line x1="28.7" y1="76.8" x2="28.7" y2="117.4" stroke="#26a69a" stroke-width="1"/>
<rect x="26.0" y="80.1" width="5.3" height="20.5" fill="#26a69a" rx="1"/>
<line x1="36.9" y1="60.4" x2="36.9" y2="102.6" stroke="#ef5350" stroke-width="1"/>
<rect x="34.3" y="68.6" width="5.3" height="15.2" fill="#ef5350" rx="1"/>
<line x1="45.2" y1="61.2" x2="45.2" y2="119.8" stroke="#ef5350" stroke-width="1"/>
<rect x="42.6" y="87.1" width="5.3" height="25.8" fill="#ef5350" rx="1"/>
<line x1="53.5" y1="110.0" x2="53.5" y2="171.0" stroke="#ef5350" stroke-width="1"/>
<rect x="50.8" y="117.0" width="5.3" height="32.4" fill="#ef5350" rx="1"/>
<line x1="61.7" y1="123.1" x2="61.7" y2="157.1" stroke="#ef5350" stroke-width="1"/>
<rect x="59.1" y="141.1" width="5.3" height="11.9" fill="#ef5350" rx="1"/>
<line x1="70.0" y1="123.5" x2="70.0" y2="161.2" stroke="#26a69a" stroke-width="1"/>
<rect x="67.4" y="134.6" width="5.3" height="22.1" fill="#26a69a" rx="1"/>
<line x1="78.3" y1="111.6" x2="78.3" y2="150.5" stroke="#ef5350" stroke-width="1"/>
<rect x="75.6" y="124.7" width="5.3" height="14.3" fill="#ef5350" rx="1"/>
<line x1="86.5" y1="133.7" x2="86.5" y2="174.7" stroke="#ef5350" stroke-width="1"/>
<rect x="83.9" y="143.6" width="5.3" height="21.7" fill="#ef5350" rx="1"/>
<line x1="94.8" y1="148.1" x2="94.8" y2="200.9" stroke="#26a69a" stroke-width="1"/>
<rect x="92.2" y="166.1" width="5.3" height="11.1" fill="#26a69a" rx="1"/>
<line x1="103.1" y1="141.9" x2="103.1" y2="171.8" stroke="#ef5350" stroke-width="1"/>
<rect x="100.4" y="147.7" width="5.3" height="17.2" fill="#ef5350" rx="1"/>
<line x1="111.3" y1="166.9" x2="111.3" y2="217.7" stroke="#ef5350" stroke-width="1"/>
<rect x="108.7" y="173.1" width="5.3" height="44.6" fill="#ef5350" rx="1"/>
<line x1="119.6" y1="209.5" x2="119.6" y2="235.7" stroke="#26a69a" stroke-width="1"/>
<rect x="117.0" y="219.0" width="5.3" height="1.2" fill="#26a69a" rx="1"/>
<line x1="127.9" y1="178.0" x2="127.9" y2="213.2" stroke="#26a69a" stroke-width="1"/>
<rect x="125.2" y="185.8" width="5.3" height="10.2" fill="#26a69a" rx="1"/>
<line x1="136.1" y1="155.0" x2="136.1" y2="180.4" stroke="#26a69a" stroke-width="1"/>
<rect x="133.5" y="164.5" width="5.3" height="14.3" fill="#26a69a" rx="1"/>
<line x1="144.4" y1="154.2" x2="144.4" y2="189.0" stroke="#ef5350" stroke-width="1"/>
<rect x="141.8" y="170.2" width="5.3" height="4.9" fill="#ef5350" rx="1"/>
<line x1="152.7" y1="178.0" x2="152.7" y2="246.4" stroke="#ef5350" stroke-width="1"/>
<rect x="150.0" y="178.0" width="5.3" height="68.4" fill="#ef5350" rx="1"/>
<line x1="160.9" y1="241.5" x2="160.9" y2="259.5" stroke="#26a69a" stroke-width="1"/>
<rect x="158.3" y="248.0" width="5.3" height="2.0" fill="#26a69a" rx="1"/>
<line x1="169.2" y1="237.4" x2="169.2" y2="274.3" stroke="#26a69a" stroke-width="1"/>
<rect x="166.6" y="248.4" width="5.3" height="5.7" fill="#26a69a" rx="1"/>
<line x1="177.5" y1="228.4" x2="177.5" y2="262.4" stroke="#ef5350" stroke-width="1"/>
<rect x="174.8" y="239.4" width="5.3" height="21.7" fill="#ef5350" rx="1"/>
<line x1="185.7" y1="230.4" x2="185.7" y2="268.5" stroke="#ef5350" stroke-width="1"/>
<rect x="183.1" y="262.0" width="5.3" height="4.9" fill="#ef5350" rx="1"/>
<line x1="194.0" y1="231.6" x2="194.0" y2="288.6" stroke="#26a69a" stroke-width="1"/>
<rect x="191.4" y="239.0" width="5.3" height="27.9" fill="#26a69a" rx="1"/>
<line x1="202.3" y1="213.2" x2="202.3" y2="269.7" stroke="#ef5350" stroke-width="1"/>
<rect x="199.6" y="237.8" width="5.3" height="7.4" fill="#ef5350" rx="1"/>
<line x1="210.5" y1="169.4" x2="210.5" y2="268.9" stroke="#26a69a" stroke-width="1"/>
<rect x="207.9" y="173.1" width="5.3" height="80.7" fill="#26a69a" rx="1"/>
<line x1="218.8" y1="151.0" x2="218.8" y2="214.9" stroke="#26a69a" stroke-width="1"/>
<rect x="216.2" y="165.3" width="5.3" height="20.1" fill="#26a69a" rx="1"/>
<line x1="227.1" y1="151.8" x2="227.1" y2="172.3" stroke="#26a69a" stroke-width="1"/>
<rect x="224.4" y="153.8" width="5.3" height="4.5" fill="#26a69a" rx="1"/>
<line x1="235.3" y1="142.4" x2="235.3" y2="176.8" stroke="#26a69a" stroke-width="1"/>
<rect x="232.7" y="142.8" width="5.3" height="9.8" fill="#26a69a" rx="1"/>
<line x1="243.6" y1="75.6" x2="243.6" y2="113.3" stroke="#26a69a" stroke-width="1"/>
<rect x="241.0" y="100.6" width="5.3" height="11.1" fill="#26a69a" rx="1"/>
<line x1="251.9" y1="32.6" x2="251.9" y2="117.8" stroke="#26a69a" stroke-width="1"/>
<rect x="249.2" y="44.0" width="5.3" height="56.9" fill="#26a69a" rx="1"/>
<line x1="260.1" y1="51.0" x2="260.1" y2="96.5" stroke="#ef5350" stroke-width="1"/>
<rect x="257.5" y="54.7" width="5.3" height="35.6" fill="#ef5350" rx="1"/>
<line x1="268.4" y1="71.5" x2="268.4" y2="121.9" stroke="#26a69a" stroke-width="1"/>
<rect x="265.8" y="85.8" width="5.3" height="16.8" fill="#26a69a" rx="1"/>
<line x1="276.7" y1="92.0" x2="276.7" y2="185.0" stroke="#ef5350" stroke-width="1"/>
<rect x="274.0" y="92.0" width="5.3" height="84.0" fill="#ef5350" rx="1"/>
<line x1="284.9" y1="165.3" x2="284.9" y2="199.3" stroke="#26a69a" stroke-width="1"/>
<rect x="282.3" y="172.7" width="5.3" height="6.6" fill="#26a69a" rx="1"/>
<line x1="293.2" y1="136.2" x2="293.2" y2="200.5" stroke="#ef5350" stroke-width="1"/>
<rect x="290.6" y="144.4" width="5.3" height="36.0" fill="#ef5350" rx="1"/>
<line x1="301.5" y1="175.5" x2="301.5" y2="214.4" stroke="#ef5350" stroke-width="1"/>
<rect x="298.8" y="193.6" width="5.3" height="13.1" fill="#ef5350" rx="1"/>
<line x1="309.7" y1="170.6" x2="309.7" y2="220.2" stroke="#26a69a" stroke-width="1"/>
<rect x="307.1" y="196.4" width="5.3" height="7.0" fill="#26a69a" rx="1"/>
<line x1="318.0" y1="112.4" x2="318.0" y2="194.8" stroke="#26a69a" stroke-width="1"/>
<rect x="315.4" y="138.3" width="5.3" height="46.3" fill="#26a69a" rx="1"/>
<line x1="326.3" y1="141.1" x2="326.3" y2="193.1" stroke="#26a69a" stroke-width="1"/>
<rect x="323.6" y="166.5" width="5.3" height="7.8" fill="#26a69a" rx="1"/>
<line x1="334.5" y1="83.8" x2="334.5" y2="155.9" stroke="#26a69a" stroke-width="1"/>
<rect x="331.9" y="84.6" width="5.3" height="59.0" fill="#26a69a" rx="1"/>
<line x1="342.8" y1="70.3" x2="342.8" y2="130.1" stroke="#ef5350" stroke-width="1"/>
<rect x="340.2" y="71.1" width="5.3" height="55.7" fill="#ef5350" rx="1"/>
<line x1="351.1" y1="79.3" x2="351.1" y2="120.2" stroke="#ef5350" stroke-width="1"/>
<rect x="348.4" y="109.2" width="5.3" height="6.6" fill="#ef5350" rx="1"/>
<line x1="359.3" y1="78.9" x2="359.3" y2="123.9" stroke="#ef5350" stroke-width="1"/>
<rect x="356.7" y="103.0" width="5.3" height="19.3" fill="#ef5350" rx="1"/>
<line x1="367.6" y1="89.1" x2="367.6" y2="158.3" stroke="#ef5350" stroke-width="1"/>
<rect x="365.0" y="128.0" width="5.3" height="29.1" fill="#ef5350" rx="1"/>
<line x1="375.9" y1="94.8" x2="375.9" y2="155.0" stroke="#26a69a" stroke-width="1"/>
<rect x="373.2" y="115.7" width="5.3" height="32.4" fill="#26a69a" rx="1"/>
<line x1="384.1" y1="127.6" x2="384.1" y2="200.1" stroke="#ef5350" stroke-width="1"/>
<rect x="381.5" y="139.5" width="5.3" height="58.6" fill="#ef5350" rx="1"/>
<line x1="392.4" y1="198.1" x2="392.4" y2="233.7" stroke="#ef5350" stroke-width="1"/>
<rect x="389.8" y="230.8" width="5.3" height="1.2" fill="#ef5350" rx="1"/>
<line x1="400.7" y1="233.3" x2="400.7" y2="275.1" stroke="#ef5350" stroke-width="1"/>
<rect x="398.0" y="245.2" width="5.3" height="9.0" fill="#ef5350" rx="1"/>
<line x1="408.9" y1="252.5" x2="408.9" y2="310.7" stroke="#ef5350" stroke-width="1"/>
<rect x="406.3" y="255.0" width="5.3" height="36.9" fill="#ef5350" rx="1"/>
<line x1="417.2" y1="268.5" x2="417.2" y2="328.7" stroke="#26a69a" stroke-width="1"/>
<rect x="414.6" y="298.0" width="5.3" height="27.9" fill="#26a69a" rx="1"/>
<line x1="425.5" y1="259.5" x2="425.5" y2="297.2" stroke="#26a69a" stroke-width="1"/>
<rect x="422.8" y="268.1" width="5.3" height="13.9" fill="#26a69a" rx="1"/>
<line x1="433.7" y1="261.6" x2="433.7" y2="292.3" stroke="#ef5350" stroke-width="1"/>
<rect x="431.1" y="272.2" width="5.3" height="13.5" fill="#ef5350" rx="1"/>
<line x1="442.0" y1="194.4" x2="442.0" y2="324.2" stroke="#26a69a" stroke-width="1"/>
<rect x="439.4" y="203.4" width="5.3" height="68.0" fill="#26a69a" rx="1"/>
<line x1="450.3" y1="122.3" x2="450.3" y2="181.3" stroke="#ef5350" stroke-width="1"/>
<rect x="447.6" y="160.4" width="5.3" height="1.2" fill="#ef5350" rx="1"/>
<line x1="458.5" y1="160.4" x2="458.5" y2="253.4" stroke="#ef5350" stroke-width="1"/>
<rect x="455.9" y="169.0" width="5.3" height="22.9" fill="#ef5350" rx="1"/>
<line x1="466.8" y1="163.2" x2="466.8" y2="210.8" stroke="#ef5350" stroke-width="1"/>
<rect x="464.2" y="176.4" width="5.3" height="20.9" fill="#ef5350" rx="1"/>
<line x1="475.1" y1="195.2" x2="475.1" y2="243.9" stroke="#26a69a" stroke-width="1"/>
<rect x="472.4" y="210.3" width="5.3" height="7.8" fill="#26a69a" rx="1"/>
<line x1="483.3" y1="203.4" x2="483.3" y2="241.5" stroke="#26a69a" stroke-width="1"/>
<rect x="480.7" y="214.9" width="5.3" height="3.7" fill="#26a69a" rx="1"/>
<line x1="491.6" y1="139.1" x2="491.6" y2="203.4" stroke="#26a69a" stroke-width="1"/>
<rect x="489.0" y="149.7" width="5.3" height="38.9" fill="#26a69a" rx="1"/>
<line x1="499.9" y1="128.0" x2="499.9" y2="178.4" stroke="#ef5350" stroke-width="1"/>
<rect x="497.2" y="133.7" width="5.3" height="41.0" fill="#ef5350" rx="1"/>
<line x1="508.1" y1="144.8" x2="508.1" y2="227.6" stroke="#ef5350" stroke-width="1"/>
<rect x="505.5" y="152.2" width="5.3" height="59.4" fill="#ef5350" rx="1"/>
<line x1="516.4" y1="182.1" x2="516.4" y2="227.1" stroke="#ef5350" stroke-width="1"/>
<rect x="513.8" y="205.8" width="5.3" height="9.4" fill="#ef5350" rx="1"/>
<line x1="524.7" y1="137.4" x2="524.7" y2="209.9" stroke="#26a69a" stroke-width="1"/>
<rect x="522.0" y="141.5" width="5.3" height="68.4" fill="#26a69a" rx="1"/>
<line x1="532.9" y1="124.7" x2="532.9" y2="184.5" stroke="#ef5350" stroke-width="1"/>
<rect x="530.3" y="143.6" width="5.3" height="31.1" fill="#ef5350" rx="1"/>
<line x1="541.2" y1="171.4" x2="541.2" y2="212.8" stroke="#ef5350" stroke-width="1"/>
<rect x="538.6" y="171.4" width="5.3" height="15.2" fill="#ef5350" rx="1"/>
<line x1="549.5" y1="182.9" x2="549.5" y2="216.1" stroke="#ef5350" stroke-width="1"/>
<rect x="546.8" y="203.4" width="5.3" height="4.1" fill="#ef5350" rx="1"/>
<line x1="557.7" y1="209.5" x2="557.7" y2="264.4" stroke="#ef5350" stroke-width="1"/>
<rect x="555.1" y="228.4" width="5.3" height="9.8" fill="#ef5350" rx="1"/>
<line x1="566.0" y1="243.5" x2="566.0" y2="300.5" stroke="#ef5350" stroke-width="1"/>
<rect x="563.4" y="255.0" width="5.3" height="33.2" fill="#ef5350" rx="1"/>
<line x1="574.3" y1="240.7" x2="574.3" y2="292.3" stroke="#26a69a" stroke-width="1"/>
<rect x="571.6" y="259.1" width="5.3" height="20.9" fill="#26a69a" rx="1"/>
<line x1="582.5" y1="222.2" x2="582.5" y2="264.0" stroke="#ef5350" stroke-width="1"/>
<rect x="579.9" y="240.7" width="5.3" height="1.2" fill="#ef5350" rx="1"/>
<line x1="590.8" y1="194.8" x2="590.8" y2="225.5" stroke="#26a69a" stroke-width="1"/>
<rect x="588.2" y="203.8" width="5.3" height="12.3" fill="#26a69a" rx="1"/>
<line x1="599.1" y1="177.6" x2="599.1" y2="230.4" stroke="#26a69a" stroke-width="1"/>
<rect x="596.4" y="196.8" width="5.3" height="25.4" fill="#26a69a" rx="1"/>
<line x1="607.3" y1="226.3" x2="607.3" y2="278.3" stroke="#ef5350" stroke-width="1"/>
<rect x="604.7" y="226.3" width="5.3" height="8.6" fill="#ef5350" rx="1"/>
<line x1="615.6" y1="243.5" x2="615.6" y2="267.7" stroke="#ef5350" stroke-width="1"/>
<rect x="613.0" y="246.0" width="5.3" height="12.7" fill="#ef5350" rx="1"/>
<line x1="623.9" y1="197.2" x2="623.9" y2="244.3" stroke="#26a69a" stroke-width="1"/>
<rect x="621.2" y="220.6" width="5.3" height="2.9" fill="#26a69a" rx="1"/>
<line x1="632.1" y1="243.1" x2="632.1" y2="291.5" stroke="#26a69a" stroke-width="1"/>
<rect x="629.5" y="266.1" width="5.3" height="7.4" fill="#26a69a" rx="1"/>
<line x1="640.4" y1="227.1" x2="640.4" y2="273.0" stroke="#26a69a" stroke-width="1"/>
<rect x="637.8" y="228.4" width="5.3" height="32.8" fill="#26a69a" rx="1"/>
<line x1="648.7" y1="220.6" x2="648.7" y2="253.0" stroke="#ef5350" stroke-width="1"/>
<rect x="646.0" y="225.5" width="5.3" height="21.3" fill="#ef5350" rx="1"/>
<line x1="656.9" y1="231.6" x2="656.9" y2="262.8" stroke="#ef5350" stroke-width="1"/>
<rect x="654.3" y="246.0" width="5.3" height="13.1" fill="#ef5350" rx="1"/>
<line x1="665.2" y1="237.4" x2="665.2" y2="282.0" stroke="#26a69a" stroke-width="1"/>
<rect x="662.6" y="242.3" width="5.3" height="15.2" fill="#26a69a" rx="1"/>
<line x1="673.5" y1="266.1" x2="673.5" y2="294.7" stroke="#ef5350" stroke-width="1"/>
<rect x="670.8" y="268.1" width="5.3" height="6.6" fill="#ef5350" rx="1"/>
<line x1="681.7" y1="277.5" x2="681.7" y2="310.3" stroke="#ef5350" stroke-width="1"/>
<rect x="679.1" y="286.5" width="5.3" height="21.3" fill="#ef5350" rx="1"/>
<line x1="690.0" y1="268.5" x2="690.0" y2="309.1" stroke="#26a69a" stroke-width="1"/>
<rect x="687.4" y="278.3" width="5.3" height="20.1" fill="#26a69a" rx="1"/>
<line x1="698.3" y1="274.3" x2="698.3" y2="299.6" stroke="#ef5350" stroke-width="1"/>
<rect x="695.6" y="278.3" width="5.3" height="20.5" fill="#ef5350" rx="1"/>
<line x1="706.5" y1="304.2" x2="706.5" y2="375.4" stroke="#ef5350" stroke-width="1"/>
<rect x="703.9" y="314.4" width="5.3" height="51.6" fill="#ef5350" rx="1"/>
<line x1="714.8" y1="302.5" x2="714.8" y2="360.3" stroke="#26a69a" stroke-width="1"/>
<rect x="712.2" y="326.3" width="5.3" height="16.8" fill="#26a69a" rx="1"/>
<line x1="723.1" y1="275.1" x2="723.1" y2="313.6" stroke="#26a69a" stroke-width="1"/>
<rect x="720.4" y="285.7" width="5.3" height="21.3" fill="#26a69a" rx="1"/>
<line x1="731.3" y1="302.5" x2="731.3" y2="336.5" stroke="#ef5350" stroke-width="1"/>
<rect x="728.7" y="308.7" width="5.3" height="11.5" fill="#ef5350" rx="1"/>
<line x1="739.6" y1="282.4" x2="739.6" y2="318.9" stroke="#26a69a" stroke-width="1"/>
<rect x="737.0" y="297.6" width="5.3" height="20.5" fill="#26a69a" rx="1"/>
<line x1="747.9" y1="273.8" x2="747.9" y2="300.9" stroke="#ef5350" stroke-width="1"/>
<rect x="745.2" y="287.8" width="5.3" height="10.2" fill="#ef5350" rx="1"/>
<text x="8" y="414" fill="#8b98a9" font-size="11">47.23</text>
<text x="752" y="414" text-anchor="end" fill="#8b98a9" font-size="11">38.86</text>
</svg>