<svg xmlns="http://www.w3.org/2000/svg" width="760" height="420" viewBox="0 0 760 420" font-family="system-ui,Segoe UI,Roboto,sans-serif">
<rect width="760" height="420" fill="#0b0f14"/>
<line x1="8" y1="12.0" x2="752" y2="12.0" stroke="#1c2530" stroke-width="1"/>
<line x1="8" y1="108.0" x2="752" y2="108.0" stroke="#1c2530" stroke-width="1"/>
<line x1="8" y1="204.0" x2="752" y2="204.0" stroke="#1c2530" stroke-width="1"/>
<line x1="8" y1="300.0" x2="752" y2="300.0" stroke="#1c2530" stroke-width="1"/>
<line x1="8" y1="396.0" x2="752" y2="396.0" stroke="#1c2530" stroke-width="1"/>
<polyline points="169.2,260.3 177.5,252.4 185.7,244.0 194.0,235.9 202.3,226.8 210.5,219.4 218.8,211.1 227.1,199.7 235.3,192.5 243.6,186.4 251.9,180.0 260.1,173.7 268.4,167.6 276.7,165.4 284.9,166.0 293.2,166.2 301.5,164.6 309.7,161.1 318.0,153.2 326.3,145.8 334.5,140.2 342.8,136.8 351.1,138.7 359.3,140.6 367.6,144.0 375.9,150.1 384.1,156.4 392.4,165.7 400.7,169.5 408.9,174.0 417.2,178.8 425.5,182.6 433.7,185.8 442.0,190.4 450.3,195.2 458.5,200.2 466.8,206.8 475.1,211.6 483.3,219.0 491.6,226.6 499.9,232.6 508.1,239.6 516.4,242.1 524.7,243.5 532.9,245.2 541.2,242.0 549.5,242.4 557.7,240.3 566.0,240.3 574.3,240.3 582.5,240.9 590.8,243.2 599.1,243.6 607.3,239.9 615.6,236.9 623.9,233.5 632.1,232.3 640.4,231.7 648.7,234.8 656.9,235.5 665.2,233.7 673.5,230.4 681.7,225.8 690.0,221.2 698.3,216.2 706.5,212.3 714.8,208.0 723.1,206.2 731.3,202.7 739.6,197.2 747.9,190.4" fill="none" stroke="#fbbf24" stroke-width="1.5" opacity="0.9"/>
<polyline points="499.9,211.0 508.1,209.6 516.4,208.3 524.7,206.7 532.9,205.3 541.2,203.8 549.5,203.3 557.7,201.9 566.0,200.8 574.3,200.2 582.5,199.9 590.8,199.8 599.1,199.0 607.3,198.6 615.6,199.4 623.9,200.0 632.1,201.2 640.4,201.5 648.7,202.3 656.9,202.6 665.2,202.2 673.5,202.3 681.7,202.2 690.0,201.8 698.3,201.8 706.5,201.4 714.8,202.3 723.1,204.1 731.3,204.2 739.6,203.9 747.9,203.4" fill="none" stroke="#60a5fa" stroke-width="1.5" opacity="0.9"/>
<line x1="12.1" y1="345.2" x2="12.1" y2="375.4" stroke="#ef5350" stroke-width="1"/>
<rect x="9.5" y="349.8" width="5.3" height="14.8" fill="#ef5350" rx="1"/>
<line x1="20.4" y1="352.4" x2="20.4" y2="373.5" stroke="#26a69a" stroke-width="1"/>
<rect x="17.8" y="353.4" width="5.3" height="12.6" fill="#26a69a" rx="1"/>
<line x1="28.7" y1="316.3" x2="28.7" y2="351.0" stroke="#26a69a" stroke-width="1"/>
<rect x="26.0" y="324.7" width="5.3" height="26.3" fill="#26a69a" rx="1"/>
<line x1="36.9" y1="318.4" x2="36.9" y2="342.2" stroke="#26a69a" stroke-width="1"/>
<rect x="34.3" y="320.5" width="5.3" height="20.0" fill="#26a69a" rx="1"/>
<line x1="45.2" y1="276.6" x2="45.2" y2="311.6" stroke="#26a69a" stroke-width="1"/>
<rect x="42.6" y="276.6" width="5.3" height="34.5" fill="#26a69a" rx="1"/>
<line x1="53.5" y1="252.9" x2="53.5" y2="281.3" stroke="#26a69a" stroke-width="1"/>
<rect x="50.8" y="262.2" width="5.3" height="14.2" fill="#26a69a" rx="1"/>
<line x1="61.7" y1="256.2" x2="61.7" y2="280.8" stroke="#26a69a" stroke-width="1"/>
<rect x="59.1" y="265.4" width="5.3" height="5.6" fill="#26a69a" rx="1"/>
<line x1="70.0" y1="245.0" x2="70.0" y2="259.8" stroke="#26a69a" stroke-width="1"/>
<rect x="67.4" y="245.1" width="5.3" height="10.9" fill="#26a69a" rx="1"/>
<line x1="78.3" y1="242.1" x2="78.3" y2="268.5" stroke="#26a69a" stroke-width="1"/>
<rect x="75.6" y="242.8" width="5.3" height="12.7" fill="#26a69a" rx="1"/>
<line x1="86.5" y1="238.5" x2="86.5" y2="261.4" stroke="#ef5350" stroke-width="1"/>
<rect x="83.9" y="242.3" width="5.3" height="13.7" fill="#ef5350" rx="1"/>
<line x1="94.8" y1="240.1" x2="94.8" y2="261.4" stroke="#26a69a" stroke-width="1"/>
<rect x="92.2" y="240.1" width="5.3" height="9.2" fill="#26a69a" rx="1"/>
<line x1="103.1" y1="232.0" x2="103.1" y2="272.3" stroke="#ef5350" stroke-width="1"/>
<rect x="100.4" y="240.3" width="5.3" height="17.2" fill="#ef5350" rx="1"/>
<line x1="111.3" y1="188.6" x2="111.3" y2="256.5" stroke="#26a69a" stroke-width="1"/>
<rect x="108.7" y="204.9" width="5.3" height="50.7" fill="#26a69a" rx="1"/>
<line x1="119.6" y1="152.7" x2="119.6" y2="210.3" stroke="#26a69a" stroke-width="1"/>
<rect x="117.0" y="154.1" width="5.3" height="42.4" fill="#26a69a" rx="1"/>
<line x1="127.9" y1="165.6" x2="127.9" y2="205.3" stroke="#26a69a" stroke-width="1"/>
<rect x="125.2" y="175.1" width="5.3" height="22.4" fill="#26a69a" rx="1"/>
<line x1="136.1" y1="177.8" x2="136.1" y2="209.1" stroke="#ef5350" stroke-width="1"/>
<rect x="133.5" y="177.9" width="5.3" height="21.0" fill="#ef5350" rx="1"/>
<line x1="144.4" y1="192.5" x2="144.4" y2="263.3" stroke="#ef5350" stroke-width="1"/>
<rect x="141.8" y="194.8" width="5.3" height="63.2" fill="#ef5350" rx="1"/>
<line x1="152.7" y1="237.0" x2="152.7" y2="272.9" stroke="#ef5350" stroke-width="1"/>
<rect x="150.0" y="247.5" width="5.3" height="17.3" fill="#ef5350" rx="1"/>
<line x1="160.9" y1="244.8" x2="160.9" y2="287.4" stroke="#ef5350" stroke-width="1"/>
<rect x="158.3" y="258.4" width="5.3" height="6.2" fill="#ef5350" rx="1"/>
<line x1="169.2" y1="253.9" x2="169.2" y2="279.6" stroke="#ef5350" stroke-width="1"/>
<rect x="166.6" y="259.6" width="5.3" height="17.1" fill="#ef5350" rx="1"/>
<line x1="177.5" y1="204.9" x2="177.5" y2="263.8" stroke="#26a69a" stroke-width="1"/>
<rect x="174.8" y="207.6" width="5.3" height="48.4" fill="#26a69a" rx="1"/>
<line x1="185.7" y1="168.8" x2="185.7" y2="215.7" stroke="#26a69a" stroke-width="1"/>
<rect x="183.1" y="185.2" width="5.3" height="19.3" fill="#26a69a" rx="1"/>
<line x1="194.0" y1="146.8" x2="194.0" y2="176.8" stroke="#26a69a" stroke-width="1"/>
<rect x="191.4" y="162.7" width="5.3" height="13.2" fill="#26a69a" rx="1"/>
<line x1="202.3" y1="119.4" x2="202.3" y2="170.7" stroke="#26a69a" stroke-width="1"/>
<rect x="199.6" y="136.8" width="5.3" height="33.0" fill="#26a69a" rx="1"/>
<line x1="210.5" y1="110.6" x2="210.5" y2="164.4" stroke="#26a69a" stroke-width="1"/>
<rect x="207.9" y="128.6" width="5.3" height="13.6" fill="#26a69a" rx="1"/>
<line x1="218.8" y1="85.6" x2="218.8" y2="123.9" stroke="#26a69a" stroke-width="1"/>
<rect x="216.2" y="97.9" width="5.3" height="5.5" fill="#26a69a" rx="1"/>
<line x1="227.1" y1="32.6" x2="227.1" y2="76.8" stroke="#26a69a" stroke-width="1"/>
<rect x="224.4" y="37.5" width="5.3" height="35.9" fill="#26a69a" rx="1"/>
<line x1="235.3" y1="63.3" x2="235.3" y2="107.6" stroke="#ef5350" stroke-width="1"/>
<rect x="232.7" y="73.9" width="5.3" height="27.0" fill="#ef5350" rx="1"/>
<line x1="243.6" y1="72.5" x2="243.6" y2="143.3" stroke="#ef5350" stroke-width="1"/>
<rect x="241.0" y="73.3" width="5.3" height="46.0" fill="#ef5350" rx="1"/>
<line x1="251.9" y1="106.1" x2="251.9" y2="146.1" stroke="#26a69a" stroke-width="1"/>
<rect x="249.2" y="129.7" width="5.3" height="6.0" fill="#26a69a" rx="1"/>
<line x1="260.1" y1="96.0" x2="260.1" y2="130.3" stroke="#26a69a" stroke-width="1"/>
<rect x="257.5" y="112.3" width="5.3" height="1.8" fill="#26a69a" rx="1"/>
<line x1="268.4" y1="88.3" x2="268.4" y2="146.0" stroke="#ef5350" stroke-width="1"/>
<rect x="265.8" y="119.5" width="5.3" height="16.9" fill="#ef5350" rx="1"/>
<line x1="276.7" y1="127.3" x2="276.7" y2="165.1" stroke="#ef5350" stroke-width="1"/>
<rect x="274.0" y="128.0" width="5.3" height="33.9" fill="#ef5350" rx="1"/>
<line x1="284.9" y1="144.5" x2="284.9" y2="182.2" stroke="#ef5350" stroke-width="1"/>
<rect x="282.3" y="154.5" width="5.3" height="10.3" fill="#ef5350" rx="1"/>
<line x1="293.2" y1="169.1" x2="293.2" y2="201.8" stroke="#ef5350" stroke-width="1"/>
<rect x="290.6" y="169.3" width="5.3" height="9.3" fill="#ef5350" rx="1"/>
<line x1="301.5" y1="160.7" x2="301.5" y2="186.9" stroke="#26a69a" stroke-width="1"/>
<rect x="298.8" y="168.5" width="5.3" height="18.1" fill="#26a69a" rx="1"/>
<line x1="309.7" y1="146.5" x2="309.7" y2="187.5" stroke="#ef5350" stroke-width="1"/>
<rect x="307.1" y="166.5" width="5.3" height="20.9" fill="#ef5350" rx="1"/>
<line x1="318.0" y1="103.7" x2="318.0" y2="159.6" stroke="#26a69a" stroke-width="1"/>
<rect x="315.4" y="106.8" width="5.3" height="52.6" fill="#26a69a" rx="1"/>
<line x1="326.3" y1="58.6" x2="326.3" y2="125.2" stroke="#ef5350" stroke-width="1"/>
<rect x="323.6" y="89.6" width="5.3" height="26.6" fill="#ef5350" rx="1"/>
<line x1="334.5" y1="116.2" x2="334.5" y2="166.9" stroke="#ef5350" stroke-width="1"/>
<rect x="331.9" y="123.0" width="5.3" height="42.5" fill="#ef5350" rx="1"/>
<line x1="342.8" y1="122.0" x2="342.8" y2="186.9" stroke="#26a69a" stroke-width="1"/>
<rect x="340.2" y="140.0" width="5.3" height="29.0" fill="#26a69a" rx="1"/>
<line x1="351.1" y1="163.1" x2="351.1" y2="227.4" stroke="#ef5350" stroke-width="1"/>
<rect x="348.4" y="165.2" width="5.3" height="57.5" fill="#ef5350" rx="1"/>
<line x1="359.3" y1="190.0" x2="359.3" y2="217.2" stroke="#ef5350" stroke-width="1"/>
<rect x="356.7" y="191.7" width="5.3" height="9.4" fill="#ef5350" rx="1"/>
<line x1="367.6" y1="184.3" x2="367.6" y2="257.9" stroke="#ef5350" stroke-width="1"/>
<rect x="365.0" y="189.0" width="5.3" height="14.8" fill="#ef5350" rx="1"/>
<line x1="375.9" y1="209.8" x2="375.9" y2="254.3" stroke="#ef5350" stroke-width="1"/>
<rect x="373.2" y="226.8" width="5.3" height="24.5" fill="#ef5350" rx="1"/>
<line x1="384.1" y1="219.3" x2="384.1" y2="256.7" stroke="#26a69a" stroke-width="1"/>
<rect x="381.5" y="224.1" width="5.3" height="20.6" fill="#26a69a" rx="1"/>
<line x1="392.4" y1="210.7" x2="392.4" y2="232.9" stroke="#26a69a" stroke-width="1"/>
<rect x="389.8" y="222.2" width="5.3" height="2.0" fill="#26a69a" rx="1"/>
<line x1="400.7" y1="176.3" x2="400.7" y2="203.0" stroke="#26a69a" stroke-width="1"/>
<rect x="398.0" y="177.9" width="5.3" height="21.5" fill="#26a69a" rx="1"/>
<line x1="408.9" y1="183.7" x2="408.9" y2="209.4" stroke="#ef5350" stroke-width="1"/>
<rect x="406.3" y="185.6" width="5.3" height="23.0" fill="#ef5350" rx="1"/>
<line x1="417.2" y1="197.7" x2="417.2" y2="235.1" stroke="#ef5350" stroke-width="1"/>
<rect x="414.6" y="201.8" width="5.3" height="23.7" fill="#ef5350" rx="1"/>
<line x1="425.5" y1="184.3" x2="425.5" y2="214.2" stroke="#26a69a" stroke-width="1"/>
<rect x="422.8" y="188.6" width="5.3" height="20.5" fill="#26a69a" rx="1"/>
<line x1="433.7" y1="168.5" x2="433.7" y2="206.7" stroke="#ef5350" stroke-width="1"/>
<rect x="431.1" y="184.0" width="5.3" height="17.0" fill="#ef5350" rx="1"/>
<line x1="442.0" y1="230.9" x2="442.0" y2="253.9" stroke="#ef5350" stroke-width="1"/>
<rect x="439.4" y="240.6" width="5.3" height="13.0" fill="#ef5350" rx="1"/>
<line x1="450.3" y1="243.7" x2="450.3" y2="274.7" stroke="#ef5350" stroke-width="1"/>
<rect x="447.6" y="253.1" width="5.3" height="6.8" fill="#ef5350" rx="1"/>
<line x1="458.5" y1="249.0" x2="458.5" y2="301.9" stroke="#ef5350" stroke-width="1"/>
<rect x="455.9" y="253.4" width="5.3" height="26.5" fill="#ef5350" rx="1"/>
<line x1="466.8" y1="281.0" x2="466.8" y2="307.4" stroke="#ef5350" stroke-width="1"/>
<rect x="464.2" y="295.8" width="5.3" height="3.6" fill="#ef5350" rx="1"/>
<line x1="475.1" y1="277.2" x2="475.1" y2="316.1" stroke="#26a69a" stroke-width="1"/>
<rect x="472.4" y="284.6" width="5.3" height="6.8" fill="#26a69a" rx="1"/>
<line x1="483.3" y1="250.0" x2="483.3" y2="283.7" stroke="#26a69a" stroke-width="1"/>
<rect x="480.7" y="253.3" width="5.3" height="17.4" fill="#26a69a" rx="1"/>
<line x1="491.6" y1="254.8" x2="491.6" y2="293.8" stroke="#26a69a" stroke-width="1"/>
<rect x="489.0" y="268.6" width="5.3" height="8.4" fill="#26a69a" rx="1"/>
<line x1="499.9" y1="253.5" x2="499.9" y2="300.5" stroke="#ef5350" stroke-width="1"/>
<rect x="497.2" y="271.3" width="5.3" height="14.1" fill="#ef5350" rx="1"/>
<line x1="508.1" y1="268.8" x2="508.1" y2="290.5" stroke="#26a69a" stroke-width="1"/>
<rect x="505.5" y="281.0" width="5.3" height="6.9" fill="#26a69a" rx="1"/>
<line x1="516.4" y1="263.6" x2="516.4" y2="307.9" stroke="#26a69a" stroke-width="1"/>
<rect x="513.8" y="272.6" width="5.3" height="27.8" fill="#26a69a" rx="1"/>
<line x1="524.7" y1="222.4" x2="524.7" y2="284.0" stroke="#26a69a" stroke-width="1"/>
<rect x="522.0" y="228.7" width="5.3" height="54.6" fill="#26a69a" rx="1"/>
<line x1="532.9" y1="225.8" x2="532.9" y2="260.2" stroke="#ef5350" stroke-width="1"/>
<rect x="530.3" y="226.6" width="5.3" height="10.3" fill="#ef5350" rx="1"/>
<line x1="541.2" y1="186.7" x2="541.2" y2="242.1" stroke="#26a69a" stroke-width="1"/>
<rect x="538.6" y="187.0" width="5.3" height="54.7" fill="#26a69a" rx="1"/>
<line x1="549.5" y1="189.4" x2="549.5" y2="235.6" stroke="#ef5350" stroke-width="1"/>
<rect x="546.8" y="201.7" width="5.3" height="30.6" fill="#ef5350" rx="1"/>
<line x1="557.7" y1="177.3" x2="557.7" y2="230.7" stroke="#26a69a" stroke-width="1"/>
<rect x="555.1" y="181.8" width="5.3" height="22.0" fill="#26a69a" rx="1"/>
<line x1="566.0" y1="169.6" x2="566.0" y2="217.0" stroke="#26a69a" stroke-width="1"/>
<rect x="563.4" y="177.6" width="5.3" height="3.3" fill="#26a69a" rx="1"/>
<line x1="574.3" y1="186.2" x2="574.3" y2="218.2" stroke="#ef5350" stroke-width="1"/>
<rect x="571.6" y="191.8" width="5.3" height="16.9" fill="#ef5350" rx="1"/>
<line x1="582.5" y1="213.3" x2="582.5" y2="266.2" stroke="#26a69a" stroke-width="1"/>
<rect x="579.9" y="236.7" width="5.3" height="1.2" fill="#26a69a" rx="1"/>
<line x1="590.8" y1="206.6" x2="590.8" y2="239.9" stroke="#ef5350" stroke-width="1"/>
<rect x="588.2" y="218.0" width="5.3" height="15.8" fill="#ef5350" rx="1"/>
<line x1="599.1" y1="201.1" x2="599.1" y2="229.4" stroke="#ef5350" stroke-width="1"/>
<rect x="596.4" y="207.8" width="5.3" height="1.5" fill="#ef5350" rx="1"/>
<line x1="607.3" y1="166.0" x2="607.3" y2="223.7" stroke="#26a69a" stroke-width="1"/>
<rect x="604.7" y="180.3" width="5.3" height="38.1" fill="#26a69a" rx="1"/>
<line x1="615.6" y1="187.5" x2="615.6" y2="217.5" stroke="#ef5350" stroke-width="1"/>
<rect x="613.0" y="196.1" width="5.3" height="4.3" fill="#ef5350" rx="1"/>
<line x1="623.9" y1="181.2" x2="623.9" y2="224.5" stroke="#ef5350" stroke-width="1"/>
<rect x="621.2" y="208.4" width="5.3" height="3.7" fill="#ef5350" rx="1"/>
<line x1="632.1" y1="200.5" x2="632.1" y2="281.7" stroke="#ef5350" stroke-width="1"/>
<rect x="629.5" y="203.8" width="5.3" height="71.3" fill="#ef5350" rx="1"/>
<line x1="640.4" y1="261.8" x2="640.4" y2="298.2" stroke="#26a69a" stroke-width="1"/>
<rect x="637.8" y="272.1" width="5.3" height="12.3" fill="#26a69a" rx="1"/>
<line x1="648.7" y1="271.7" x2="648.7" y2="314.8" stroke="#ef5350" stroke-width="1"/>
<rect x="646.0" y="279.2" width="5.3" height="35.6" fill="#ef5350" rx="1"/>
<line x1="656.9" y1="270.6" x2="656.9" y2="305.6" stroke="#26a69a" stroke-width="1"/>
<rect x="654.3" y="284.1" width="5.3" height="9.7" fill="#26a69a" rx="1"/>
<line x1="665.2" y1="241.7" x2="665.2" y2="284.7" stroke="#26a69a" stroke-width="1"/>
<rect x="662.6" y="249.3" width="5.3" height="14.1" fill="#26a69a" rx="1"/>
<line x1="673.5" y1="200.5" x2="673.5" y2="273.1" stroke="#26a69a" stroke-width="1"/>
<rect x="670.8" y="213.3" width="5.3" height="54.6" fill="#26a69a" rx="1"/>
<line x1="681.7" y1="174.2" x2="681.7" y2="198.6" stroke="#26a69a" stroke-width="1"/>
<rect x="679.1" y="181.0" width="5.3" height="3.9" fill="#26a69a" rx="1"/>
<line x1="690.0" y1="118.3" x2="690.0" y2="153.8" stroke="#26a69a" stroke-width="1"/>
<rect x="687.4" y="136.6" width="5.3" height="14.4" fill="#26a69a" rx="1"/>
<line x1="698.3" y1="109.7" x2="698.3" y2="150.1" stroke="#ef5350" stroke-width="1"/>
<rect x="695.6" y="122.5" width="5.3" height="15.5" fill="#ef5350" rx="1"/>
<line x1="706.5" y1="102.8" x2="706.5" y2="127.8" stroke="#26a69a" stroke-width="1"/>
<rect x="703.9" y="107.6" width="5.3" height="14.8" fill="#26a69a" rx="1"/>
<line x1="714.8" y1="106.5" x2="714.8" y2="151.5" stroke="#ef5350" stroke-width="1"/>
<rect x="712.2" y="111.1" width="5.3" height="35.7" fill="#ef5350" rx="1"/>
<line x1="723.1" y1="118.4" x2="723.1" y2="155.0" stroke="#ef5350" stroke-width="1"/>
<rect x="720.4" y="118.6" width="5.3" height="28.5" fill="#ef5350" rx="1"/>
<line x1="731.3" y1="100.7" x2="731.3" y2="130.6" stroke="#26a69a" stroke-width="1"/>
<rect x="728.7" y="106.8" width="5.3" height="18.6" fill="#26a69a" rx="1"/>
<line x1="739.6" y1="87.7" x2="739.6" y2="109.2" stroke="#26a69a" stroke-width="1"/>
<rect x="737.0" y="99.5" width="5.3" height="1.5" fill="#26a69a" rx="1"/>
<line x1="747.9" y1="86.1" x2="747.9" y2="104.3" stroke="#ef5350" stroke-width="1"/>
<rect x="745.2" y="90.5" width="5.3" height="9.8" fill="#ef5350" rx="1"/>
<text x="8" y="414" fill="#8b98a9" font-size="11">236.26</text>
<text x="752" y="414" text-anchor="end" fill="#8b98a9" font-size="11">180.08</text>
</svg>