<svg xmlns="http://www.w3.org/2000/svg" width="760" height="420" viewBox="0 0 760 420" font-family="system-ui,Segoe UI,Roboto,sans-serif">
<rect width="760" height="420" fill="#0b0f14"/>
<line x1="8" y1="12.0" x2="752" y2="12.0" stroke="#1c2530" stroke-width="1"/>
<line x1="8" y1="108.0" x2="752" y2="108.0" stroke="#1c2530" stroke-width="1"/>
<line x1="8" y1="204.0" x2="752" y2="204.0" stroke="#1c2530" stroke-width="1"/>
<line x1="8" y1="300.0" x2="752" y2="300.0" stroke="#1c2530" stroke-width="1"/>
<line x1="8" y1="396.0" x2="752" y2="396.0" stroke="#1c2530" stroke-width="1"/>
<polyline points="169.2,206.4 177.5,209.7 185.7,215.5 194.0,221.1 202.3,225.0 210.5,226.8 218.8,227.8 227.1,230.0 235.3,231.6 243.6,231.0 251.9,230.1 260.1,230.4 268.4,231.2 276.7,232.3 284.9,234.5 293.2,235.8 301.5,235.8 309.7,236.0 318.0,236.4 326.3,237.3 334.5,236.6 342.8,235.1 351.1,232.9 359.3,230.6 367.6,229.8 375.9,231.7 384.1,234.5 392.4,238.3 400.7,244.1 408.9,252.3 417.2,258.3 425.5,264.1 433.7,269.1 442.0,274.5 450.3,277.8 458.5,284.1 466.8,290.4 475.1,295.5 483.3,300.2 491.6,304.8 499.9,310.2 508.1,316.6 516.4,320.4 524.7,323.2 532.9,326.0 541.2,327.5 549.5,328.0 557.7,327.7 566.0,324.6 574.3,320.4 582.5,317.7 590.8,313.5 599.1,308.6 607.3,303.9 615.6,300.3 623.9,294.6 632.1,288.9 640.4,281.8 648.7,274.0 656.9,264.1 665.2,254.3 673.5,245.2 681.7,238.9 690.0,232.1 698.3,224.9 706.5,216.6 714.8,207.6 723.1,195.0 731.3,184.5 739.6,172.9 747.9,162.1" fill="none" stroke="#fbbf24" stroke-width="1.5" opacity="0.9"/>
<polyline points="499.9,251.1 508.1,253.8 516.4,256.3 524.7,258.3 532.9,260.3 541.2,262.0 549.5,263.4 557.7,265.3 566.0,266.7 574.3,267.9 582.5,268.7 590.8,269.3 599.1,269.7 607.3,270.2 615.6,270.8 623.9,271.5 632.1,271.7 640.4,271.1 648.7,270.2 656.9,268.7 665.2,267.1 673.5,265.6 681.7,264.1 690.0,262.0 698.3,260.3 706.5,258.6 714.8,256.7 723.1,253.6 731.3,251.0 739.6,248.5 747.9,246.0" fill="none" stroke="#60a5fa" stroke-width="1.5" opacity="0.9"/>
<line x1="12.1" y1="155.2" x2="12.1" y2="176.1" stroke="#26a69a" stroke-width="1"/>
<rect x="9.5" y="171.5" width="5.3" height="1.2" fill="#26a69a" rx="1"/>
<line x1="20.4" y1="143.4" x2="20.4" y2="178.1" stroke="#26a69a" stroke-width="1"/>
<rect x="17.8" y="149.9" width="5.3" height="15.1" fill="#26a69a" rx="1"/>
<line x1="28.7" y1="131.6" x2="28.7" y2="153.2" stroke="#ef5350" stroke-width="1"/>
<rect x="26.0" y="147.9" width="5.3" height="4.6" fill="#ef5350" rx="1"/>
<line x1="36.9" y1="146.0" x2="36.9" y2="172.9" stroke="#ef5350" stroke-width="1"/>
<rect x="34.3" y="152.5" width="5.3" height="13.1" fill="#ef5350" rx="1"/>
<line x1="45.2" y1="161.1" x2="45.2" y2="202.4" stroke="#ef5350" stroke-width="1"/>
<rect x="42.6" y="163.7" width="5.3" height="34.7" fill="#ef5350" rx="1"/>
<line x1="53.5" y1="196.5" x2="53.5" y2="224.7" stroke="#ef5350" stroke-width="1"/>
<rect x="50.8" y="201.0" width="5.3" height="5.2" fill="#ef5350" rx="1"/>
<line x1="61.7" y1="166.3" x2="61.7" y2="212.2" stroke="#26a69a" stroke-width="1"/>
<rect x="59.1" y="185.3" width="5.3" height="19.7" fill="#26a69a" rx="1"/>
<line x1="70.0" y1="163.7" x2="70.0" y2="199.1" stroke="#ef5350" stroke-width="1"/>
<rect x="67.4" y="182.0" width="5.3" height="17.0" fill="#ef5350" rx="1"/>
<line x1="78.3" y1="148.6" x2="78.3" y2="228.6" stroke="#ef5350" stroke-width="1"/>
<rect x="75.6" y="151.9" width="5.3" height="66.9" fill="#ef5350" rx="1"/>
<line x1="86.5" y1="214.2" x2="86.5" y2="236.5" stroke="#ef5350" stroke-width="1"/>
<rect x="83.9" y="226.0" width="5.3" height="6.6" fill="#ef5350" rx="1"/>
<line x1="94.8" y1="191.2" x2="94.8" y2="231.2" stroke="#26a69a" stroke-width="1"/>
<rect x="92.2" y="204.3" width="5.3" height="19.7" fill="#26a69a" rx="1"/>
<line x1="103.1" y1="210.2" x2="103.1" y2="230.6" stroke="#ef5350" stroke-width="1"/>
<rect x="100.4" y="210.9" width="5.3" height="17.0" fill="#ef5350" rx="1"/>
<line x1="111.3" y1="216.8" x2="111.3" y2="239.7" stroke="#26a69a" stroke-width="1"/>
<rect x="108.7" y="229.9" width="5.3" height="3.9" fill="#26a69a" rx="1"/>
<line x1="119.6" y1="201.7" x2="119.6" y2="248.3" stroke="#ef5350" stroke-width="1"/>
<rect x="117.0" y="211.5" width="5.3" height="9.2" fill="#ef5350" rx="1"/>
<line x1="127.9" y1="205.6" x2="127.9" y2="235.8" stroke="#ef5350" stroke-width="1"/>
<rect x="125.2" y="213.5" width="5.3" height="2.0" fill="#ef5350" rx="1"/>
<line x1="136.1" y1="203.0" x2="136.1" y2="239.1" stroke="#ef5350" stroke-width="1"/>
<rect x="133.5" y="216.8" width="5.3" height="2.0" fill="#ef5350" rx="1"/>
<line x1="144.4" y1="208.9" x2="144.4" y2="247.6" stroke="#ef5350" stroke-width="1"/>
<rect x="141.8" y="211.5" width="5.3" height="30.8" fill="#ef5350" rx="1"/>
<line x1="152.7" y1="210.2" x2="152.7" y2="242.4" stroke="#26a69a" stroke-width="1"/>
<rect x="150.0" y="233.8" width="5.3" height="1.3" fill="#26a69a" rx="1"/>
<line x1="160.9" y1="216.1" x2="160.9" y2="238.4" stroke="#26a69a" stroke-width="1"/>
<rect x="158.3" y="229.9" width="5.3" height="3.3" fill="#26a69a" rx="1"/>
<line x1="169.2" y1="216.1" x2="169.2" y2="245.0" stroke="#26a69a" stroke-width="1"/>
<rect x="166.6" y="224.7" width="5.3" height="9.8" fill="#26a69a" rx="1"/>
<line x1="177.5" y1="215.5" x2="177.5" y2="239.7" stroke="#ef5350" stroke-width="1"/>
<rect x="174.8" y="217.4" width="5.3" height="20.3" fill="#ef5350" rx="1"/>
<line x1="185.7" y1="232.5" x2="185.7" y2="270.5" stroke="#ef5350" stroke-width="1"/>
<rect x="183.1" y="237.8" width="5.3" height="27.5" fill="#ef5350" rx="1"/>
<line x1="194.0" y1="261.4" x2="194.0" y2="273.8" stroke="#26a69a" stroke-width="1"/>
<rect x="191.4" y="265.3" width="5.3" height="1.2" fill="#26a69a" rx="1"/>
<line x1="202.3" y1="224.7" x2="202.3" y2="270.5" stroke="#26a69a" stroke-width="1"/>
<rect x="199.6" y="243.7" width="5.3" height="23.6" fill="#26a69a" rx="1"/>
<line x1="210.5" y1="220.1" x2="210.5" y2="243.0" stroke="#26a69a" stroke-width="1"/>
<rect x="207.9" y="235.1" width="5.3" height="2.0" fill="#26a69a" rx="1"/>
<line x1="218.8" y1="224.7" x2="218.8" y2="249.6" stroke="#26a69a" stroke-width="1"/>
<rect x="216.2" y="225.3" width="5.3" height="11.1" fill="#26a69a" rx="1"/>
<line x1="227.1" y1="212.2" x2="227.1" y2="237.1" stroke="#ef5350" stroke-width="1"/>
<rect x="224.4" y="222.0" width="5.3" height="6.6" fill="#ef5350" rx="1"/>
<line x1="235.3" y1="228.6" x2="235.3" y2="243.7" stroke="#ef5350" stroke-width="1"/>
<rect x="232.7" y="229.9" width="5.3" height="1.3" fill="#ef5350" rx="1"/>
<line x1="243.6" y1="187.3" x2="243.6" y2="231.2" stroke="#26a69a" stroke-width="1"/>
<rect x="241.0" y="208.3" width="5.3" height="22.9" fill="#26a69a" rx="1"/>
<line x1="251.9" y1="203.7" x2="251.9" y2="221.4" stroke="#ef5350" stroke-width="1"/>
<rect x="249.2" y="210.9" width="5.3" height="2.0" fill="#ef5350" rx="1"/>
<line x1="260.1" y1="206.3" x2="260.1" y2="226.6" stroke="#ef5350" stroke-width="1"/>
<rect x="257.5" y="209.6" width="5.3" height="1.2" fill="#ef5350" rx="1"/>
<line x1="268.4" y1="227.9" x2="268.4" y2="255.5" stroke="#ef5350" stroke-width="1"/>
<rect x="265.8" y="228.6" width="5.3" height="17.0" fill="#ef5350" rx="1"/>
<line x1="276.7" y1="241.0" x2="276.7" y2="268.6" stroke="#ef5350" stroke-width="1"/>
<rect x="274.0" y="247.6" width="5.3" height="3.3" fill="#ef5350" rx="1"/>
<line x1="284.9" y1="246.3" x2="284.9" y2="267.3" stroke="#ef5350" stroke-width="1"/>
<rect x="282.3" y="258.7" width="5.3" height="5.9" fill="#ef5350" rx="1"/>
<line x1="293.2" y1="221.4" x2="293.2" y2="246.9" stroke="#26a69a" stroke-width="1"/>
<rect x="290.6" y="241.7" width="5.3" height="1.3" fill="#26a69a" rx="1"/>
<line x1="301.5" y1="208.3" x2="301.5" y2="235.1" stroke="#26a69a" stroke-width="1"/>
<rect x="298.8" y="219.4" width="5.3" height="11.8" fill="#26a69a" rx="1"/>
<line x1="309.7" y1="207.6" x2="309.7" y2="247.6" stroke="#ef5350" stroke-width="1"/>
<rect x="307.1" y="224.0" width="5.3" height="22.3" fill="#ef5350" rx="1"/>
<line x1="318.0" y1="229.9" x2="318.0" y2="256.1" stroke="#ef5350" stroke-width="1"/>
<rect x="315.4" y="239.1" width="5.3" height="2.0" fill="#ef5350" rx="1"/>
<line x1="326.3" y1="231.2" x2="326.3" y2="248.9" stroke="#ef5350" stroke-width="1"/>
<rect x="323.6" y="234.5" width="5.3" height="13.1" fill="#ef5350" rx="1"/>
<line x1="334.5" y1="191.2" x2="334.5" y2="235.1" stroke="#26a69a" stroke-width="1"/>
<rect x="331.9" y="210.9" width="5.3" height="24.3" fill="#26a69a" rx="1"/>
<line x1="342.8" y1="190.6" x2="342.8" y2="214.8" stroke="#ef5350" stroke-width="1"/>
<rect x="340.2" y="203.0" width="5.3" height="5.2" fill="#ef5350" rx="1"/>
<line x1="351.1" y1="194.5" x2="351.1" y2="223.3" stroke="#ef5350" stroke-width="1"/>
<rect x="348.4" y="205.6" width="5.3" height="16.4" fill="#ef5350" rx="1"/>
<line x1="359.3" y1="213.5" x2="359.3" y2="241.0" stroke="#ef5350" stroke-width="1"/>
<rect x="356.7" y="218.8" width="5.3" height="1.2" fill="#ef5350" rx="1"/>
<line x1="367.6" y1="203.7" x2="367.6" y2="229.9" stroke="#ef5350" stroke-width="1"/>
<rect x="365.0" y="220.1" width="5.3" height="7.2" fill="#ef5350" rx="1"/>
<line x1="375.9" y1="243.7" x2="375.9" y2="290.2" stroke="#ef5350" stroke-width="1"/>
<rect x="373.2" y="248.9" width="5.3" height="23.6" fill="#ef5350" rx="1"/>
<line x1="384.1" y1="266.6" x2="384.1" y2="288.9" stroke="#ef5350" stroke-width="1"/>
<rect x="381.5" y="271.9" width="5.3" height="9.2" fill="#ef5350" rx="1"/>
<line x1="392.4" y1="270.5" x2="392.4" y2="305.9" stroke="#ef5350" stroke-width="1"/>
<rect x="389.8" y="286.9" width="5.3" height="17.7" fill="#ef5350" rx="1"/>
<line x1="400.7" y1="279.1" x2="400.7" y2="355.1" stroke="#ef5350" stroke-width="1"/>
<rect x="398.0" y="299.4" width="5.3" height="48.5" fill="#ef5350" rx="1"/>
<line x1="408.9" y1="328.9" x2="408.9" y2="375.4" stroke="#ef5350" stroke-width="1"/>
<rect x="406.3" y="338.7" width="5.3" height="33.4" fill="#ef5350" rx="1"/>
<line x1="417.2" y1="328.2" x2="417.2" y2="367.6" stroke="#26a69a" stroke-width="1"/>
<rect x="414.6" y="332.2" width="5.3" height="35.4" fill="#26a69a" rx="1"/>
<line x1="425.5" y1="318.4" x2="425.5" y2="344.0" stroke="#26a69a" stroke-width="1"/>
<rect x="422.8" y="326.9" width="5.3" height="5.2" fill="#26a69a" rx="1"/>
<line x1="433.7" y1="321.0" x2="433.7" y2="364.9" stroke="#ef5350" stroke-width="1"/>
<rect x="431.1" y="323.0" width="5.3" height="22.3" fill="#ef5350" rx="1"/>
<line x1="442.0" y1="335.4" x2="442.0" y2="367.6" stroke="#ef5350" stroke-width="1"/>
<rect x="439.4" y="341.3" width="5.3" height="17.0" fill="#ef5350" rx="1"/>
<line x1="450.3" y1="313.8" x2="450.3" y2="342.0" stroke="#26a69a" stroke-width="1"/>
<rect x="447.6" y="330.2" width="5.3" height="11.1" fill="#26a69a" rx="1"/>
<line x1="458.5" y1="338.1" x2="458.5" y2="375.4" stroke="#ef5350" stroke-width="1"/>
<rect x="455.9" y="340.7" width="5.3" height="28.2" fill="#ef5350" rx="1"/>
<line x1="466.8" y1="328.2" x2="466.8" y2="355.1" stroke="#26a69a" stroke-width="1"/>
<rect x="464.2" y="345.9" width="5.3" height="1.3" fill="#26a69a" rx="1"/>
<line x1="475.1" y1="326.9" x2="475.1" y2="357.7" stroke="#26a69a" stroke-width="1"/>
<rect x="472.4" y="347.2" width="5.3" height="1.2" fill="#26a69a" rx="1"/>
<line x1="483.3" y1="331.5" x2="483.3" y2="349.9" stroke="#26a69a" stroke-width="1"/>
<rect x="480.7" y="334.8" width="5.3" height="8.5" fill="#26a69a" rx="1"/>
<line x1="491.6" y1="324.3" x2="491.6" y2="344.0" stroke="#ef5350" stroke-width="1"/>
<rect x="489.0" y="328.2" width="5.3" height="11.8" fill="#ef5350" rx="1"/>
<line x1="499.9" y1="304.6" x2="499.9" y2="336.1" stroke="#26a69a" stroke-width="1"/>
<rect x="497.2" y="319.7" width="5.3" height="13.1" fill="#26a69a" rx="1"/>
<line x1="508.1" y1="323.0" x2="508.1" y2="342.0" stroke="#ef5350" stroke-width="1"/>
<rect x="505.5" y="326.9" width="5.3" height="7.9" fill="#ef5350" rx="1"/>
<line x1="516.4" y1="298.1" x2="516.4" y2="330.9" stroke="#26a69a" stroke-width="1"/>
<rect x="513.8" y="298.1" width="5.3" height="30.8" fill="#26a69a" rx="1"/>
<line x1="524.7" y1="262.7" x2="524.7" y2="295.5" stroke="#26a69a" stroke-width="1"/>
<rect x="522.0" y="277.1" width="5.3" height="13.1" fill="#26a69a" rx="1"/>
<line x1="532.9" y1="244.3" x2="532.9" y2="288.2" stroke="#ef5350" stroke-width="1"/>
<rect x="530.3" y="260.7" width="5.3" height="22.3" fill="#ef5350" rx="1"/>
<line x1="541.2" y1="275.8" x2="541.2" y2="304.6" stroke="#ef5350" stroke-width="1"/>
<rect x="538.6" y="280.4" width="5.3" height="22.3" fill="#ef5350" rx="1"/>
<line x1="549.5" y1="285.6" x2="549.5" y2="308.6" stroke="#26a69a" stroke-width="1"/>
<rect x="546.8" y="290.2" width="5.3" height="11.8" fill="#26a69a" rx="1"/>
<line x1="557.7" y1="273.8" x2="557.7" y2="300.7" stroke="#ef5350" stroke-width="1"/>
<rect x="555.1" y="274.5" width="5.3" height="23.6" fill="#ef5350" rx="1"/>
<line x1="566.0" y1="279.7" x2="566.0" y2="302.7" stroke="#26a69a" stroke-width="1"/>
<rect x="563.4" y="285.6" width="5.3" height="7.9" fill="#26a69a" rx="1"/>
<line x1="574.3" y1="274.5" x2="574.3" y2="290.2" stroke="#ef5350" stroke-width="1"/>
<rect x="571.6" y="283.0" width="5.3" height="5.2" fill="#ef5350" rx="1"/>
<line x1="582.5" y1="266.0" x2="582.5" y2="294.8" stroke="#26a69a" stroke-width="1"/>
<rect x="579.9" y="279.7" width="5.3" height="6.6" fill="#26a69a" rx="1"/>
<line x1="590.8" y1="225.3" x2="590.8" y2="262.0" stroke="#26a69a" stroke-width="1"/>
<rect x="588.2" y="241.7" width="5.3" height="18.4" fill="#26a69a" rx="1"/>
<line x1="599.1" y1="233.8" x2="599.1" y2="254.2" stroke="#ef5350" stroke-width="1"/>
<rect x="596.4" y="235.1" width="5.3" height="13.1" fill="#ef5350" rx="1"/>
<line x1="607.3" y1="259.4" x2="607.3" y2="287.6" stroke="#26a69a" stroke-width="1"/>
<rect x="604.7" y="264.0" width="5.3" height="4.6" fill="#26a69a" rx="1"/>
<line x1="615.6" y1="246.3" x2="615.6" y2="279.7" stroke="#26a69a" stroke-width="1"/>
<rect x="613.0" y="257.4" width="5.3" height="12.5" fill="#26a69a" rx="1"/>
<line x1="623.9" y1="232.5" x2="623.9" y2="266.6" stroke="#ef5350" stroke-width="1"/>
<rect x="621.2" y="248.3" width="5.3" height="7.9" fill="#ef5350" rx="1"/>
<line x1="632.1" y1="216.1" x2="632.1" y2="277.8" stroke="#26a69a" stroke-width="1"/>
<rect x="629.5" y="231.2" width="5.3" height="24.3" fill="#26a69a" rx="1"/>
<line x1="640.4" y1="205.0" x2="640.4" y2="238.4" stroke="#26a69a" stroke-width="1"/>
<rect x="637.8" y="205.0" width="5.3" height="20.3" fill="#26a69a" rx="1"/>
<line x1="648.7" y1="179.4" x2="648.7" y2="205.0" stroke="#26a69a" stroke-width="1"/>
<rect x="646.0" y="179.4" width="5.3" height="12.5" fill="#26a69a" rx="1"/>
<line x1="656.9" y1="142.7" x2="656.9" y2="189.2" stroke="#26a69a" stroke-width="1"/>
<rect x="654.3" y="142.7" width="5.3" height="35.4" fill="#26a69a" rx="1"/>
<line x1="665.2" y1="114.5" x2="665.2" y2="158.4" stroke="#26a69a" stroke-width="1"/>
<rect x="662.6" y="123.7" width="5.3" height="30.2" fill="#26a69a" rx="1"/>
<line x1="673.5" y1="113.9" x2="673.5" y2="161.7" stroke="#ef5350" stroke-width="1"/>
<rect x="670.8" y="130.9" width="5.3" height="21.0" fill="#ef5350" rx="1"/>
<line x1="681.7" y1="163.7" x2="681.7" y2="180.7" stroke="#ef5350" stroke-width="1"/>
<rect x="679.1" y="167.0" width="5.3" height="5.2" fill="#ef5350" rx="1"/>
<line x1="690.0" y1="130.2" x2="690.0" y2="165.6" stroke="#26a69a" stroke-width="1"/>
<rect x="687.4" y="140.1" width="5.3" height="20.3" fill="#26a69a" rx="1"/>
<line x1="698.3" y1="132.2" x2="698.3" y2="165.0" stroke="#26a69a" stroke-width="1"/>
<rect x="695.6" y="140.7" width="5.3" height="8.5" fill="#26a69a" rx="1"/>
<line x1="706.5" y1="125.7" x2="706.5" y2="156.5" stroke="#26a69a" stroke-width="1"/>
<rect x="703.9" y="135.5" width="5.3" height="7.2" fill="#26a69a" rx="1"/>
<line x1="714.8" y1="100.7" x2="714.8" y2="120.4" stroke="#26a69a" stroke-width="1"/>
<rect x="712.2" y="110.6" width="5.3" height="6.6" fill="#26a69a" rx="1"/>
<line x1="723.1" y1="32.6" x2="723.1" y2="88.9" stroke="#26a69a" stroke-width="1"/>
<rect x="720.4" y="45.7" width="5.3" height="42.0" fill="#26a69a" rx="1"/>
<line x1="731.3" y1="50.9" x2="731.3" y2="84.4" stroke="#ef5350" stroke-width="1"/>
<rect x="728.7" y="61.4" width="5.3" height="13.8" fill="#ef5350" rx="1"/>
<line x1="739.6" y1="33.2" x2="739.6" y2="83.7" stroke="#26a69a" stroke-width="1"/>
<rect x="737.0" y="56.8" width="5.3" height="19.7" fill="#26a69a" rx="1"/>
<line x1="747.9" y1="50.9" x2="747.9" y2="73.9" stroke="#ef5350" stroke-width="1"/>
<rect x="745.2" y="54.9" width="5.3" height="8.5" fill="#ef5350" rx="1"/>
<text x="8" y="414" fill="#8b98a9" font-size="11">28.44</text>
<text x="752" y="414" text-anchor="end" fill="#8b98a9" font-size="11">23.21</text>
</svg>