<svg xmlns="http://www.w3.org/2000/svg" width="760" height="420" viewBox="0 0 760 420" font-family="system-ui,Segoe UI,Roboto,sans-serif">
<rect width="760" height="420" fill="#0b0f14"/>
<line x1="8" y1="12.0" x2="752" y2="12.0" stroke="#1c2530" stroke-width="1"/>
<line x1="8" y1="108.0" x2="752" y2="108.0" stroke="#1c2530" stroke-width="1"/>
<line x1="8" y1="204.0" x2="752" y2="204.0" stroke="#1c2530" stroke-width="1"/>
<line x1="8" y1="300.0" x2="752" y2="300.0" stroke="#1c2530" stroke-width="1"/>
<line x1="8" y1="396.0" x2="752" y2="396.0" stroke="#1c2530" stroke-width="1"/>
<polyline points="169.2,275.4 177.5,266.3 185.7,258.5 194.0,250.8 202.3,243.9 210.5,236.3 218.8,228.6 227.1,222.3 235.3,213.3 243.6,204.2 251.9,194.6 260.1,186.0 268.4,178.0 276.7,168.5 284.9,158.6 293.2,153.2 301.5,150.1 309.7,148.2 318.0,147.3 326.3,147.1 334.5,144.9 342.8,141.6 351.1,135.0 359.3,130.5 367.6,125.2 375.9,120.5 384.1,115.1 392.4,112.3 400.7,111.5 408.9,109.5 417.2,109.3 425.5,108.1 433.7,104.3 442.0,103.3 450.3,104.6 458.5,103.1 466.8,100.4 475.1,99.0 483.3,95.2 491.6,89.6 499.9,87.2 508.1,85.2 516.4,86.2 524.7,86.5 532.9,87.4 541.2,89.2 549.5,89.6 557.7,87.9 566.0,86.8 574.3,87.4 582.5,88.8 590.8,93.3 599.1,101.3 607.3,104.3 615.6,106.5 623.9,110.1 632.1,109.9 640.4,111.8 648.7,114.8 656.9,118.8 665.2,122.2 673.5,126.1 681.7,128.6 690.0,129.5 698.3,128.6 706.5,128.4 714.8,131.6 723.1,136.2 731.3,139.9 739.6,142.5 747.9,144.5" fill="none" stroke="#fbbf24" stroke-width="1.5" opacity="0.9"/>
<polyline points="499.9,169.1 508.1,164.4 516.4,159.9 524.7,155.9 532.9,152.2 541.2,148.7 549.5,144.4 557.7,140.8 566.0,137.2 574.3,133.7 582.5,130.9 590.8,129.1 599.1,127.9 607.3,125.3 615.6,123.2 623.9,122.1 632.1,120.1 640.4,119.7 648.7,119.1 656.9,118.5 665.2,118.1 673.5,117.7 681.7,116.6 690.0,115.5 698.3,113.7 706.5,112.7 714.8,112.1 723.1,112.1 731.3,112.7 739.6,113.1 747.9,114.2" fill="none" stroke="#60a5fa" stroke-width="1.5" opacity="0.9"/>
<line x1="12.1" y1="356.5" x2="12.1" y2="375.4" stroke="#26a69a" stroke-width="1"/>
<rect x="9.5" y="357.7" width="5.3" height="14.1" fill="#26a69a" rx="1"/>
<line x1="20.4" y1="354.7" x2="20.4" y2="362.0" stroke="#ef5350" stroke-width="1"/>
<rect x="17.8" y="354.8" width="5.3" height="2.8" fill="#ef5350" rx="1"/>
<line x1="28.7" y1="347.7" x2="28.7" y2="364.3" stroke="#ef5350" stroke-width="1"/>
<rect x="26.0" y="355.2" width="5.3" height="6.0" fill="#ef5350" rx="1"/>
<line x1="36.9" y1="349.2" x2="36.9" y2="359.4" stroke="#26a69a" stroke-width="1"/>
<rect x="34.3" y="351.1" width="5.3" height="7.6" fill="#26a69a" rx="1"/>
<line x1="45.2" y1="330.1" x2="45.2" y2="349.3" stroke="#26a69a" stroke-width="1"/>
<rect x="42.6" y="330.9" width="5.3" height="13.0" fill="#26a69a" rx="1"/>
<line x1="53.5" y1="323.8" x2="53.5" y2="334.9" stroke="#26a69a" stroke-width="1"/>
<rect x="50.8" y="328.9" width="5.3" height="3.5" fill="#26a69a" rx="1"/>
<line x1="61.7" y1="278.4" x2="61.7" y2="298.0" stroke="#26a69a" stroke-width="1"/>
<rect x="59.1" y="283.9" width="5.3" height="11.7" fill="#26a69a" rx="1"/>
<line x1="70.0" y1="282.4" x2="70.0" y2="304.0" stroke="#ef5350" stroke-width="1"/>
<rect x="67.4" y="285.5" width="5.3" height="12.4" fill="#ef5350" rx="1"/>
<line x1="78.3" y1="305.4" x2="78.3" y2="324.0" stroke="#26a69a" stroke-width="1"/>
<rect x="75.6" y="310.0" width="5.3" height="12.0" fill="#26a69a" rx="1"/>
<line x1="86.5" y1="292.0" x2="86.5" y2="314.6" stroke="#26a69a" stroke-width="1"/>
<rect x="83.9" y="295.2" width="5.3" height="11.2" fill="#26a69a" rx="1"/>
<line x1="94.8" y1="276.3" x2="94.8" y2="300.0" stroke="#26a69a" stroke-width="1"/>
<rect x="92.2" y="276.8" width="5.3" height="13.9" fill="#26a69a" rx="1"/>
<line x1="103.1" y1="268.0" x2="103.1" y2="282.4" stroke="#26a69a" stroke-width="1"/>
<rect x="100.4" y="270.4" width="5.3" height="9.2" fill="#26a69a" rx="1"/>
<line x1="111.3" y1="269.0" x2="111.3" y2="293.5" stroke="#ef5350" stroke-width="1"/>
<rect x="108.7" y="270.6" width="5.3" height="19.9" fill="#ef5350" rx="1"/>
<line x1="119.6" y1="271.4" x2="119.6" y2="287.0" stroke="#26a69a" stroke-width="1"/>
<rect x="117.0" y="276.0" width="5.3" height="4.0" fill="#26a69a" rx="1"/>
<line x1="127.9" y1="196.1" x2="127.9" y2="226.4" stroke="#26a69a" stroke-width="1"/>
<rect x="125.2" y="205.8" width="5.3" height="12.6" fill="#26a69a" rx="1"/>
<line x1="136.1" y1="205.5" x2="136.1" y2="227.4" stroke="#ef5350" stroke-width="1"/>
<rect x="133.5" y="210.4" width="5.3" height="9.1" fill="#ef5350" rx="1"/>
<line x1="144.4" y1="168.8" x2="144.4" y2="209.1" stroke="#26a69a" stroke-width="1"/>
<rect x="141.8" y="170.0" width="5.3" height="38.8" fill="#26a69a" rx="1"/>
<line x1="152.7" y1="155.1" x2="152.7" y2="174.6" stroke="#ef5350" stroke-width="1"/>
<rect x="150.0" y="164.3" width="5.3" height="1.9" fill="#ef5350" rx="1"/>
<line x1="160.9" y1="166.2" x2="160.9" y2="200.8" stroke="#ef5350" stroke-width="1"/>
<rect x="158.3" y="176.3" width="5.3" height="1.2" fill="#ef5350" rx="1"/>
<line x1="169.2" y1="165.4" x2="169.2" y2="193.9" stroke="#ef5350" stroke-width="1"/>
<rect x="166.6" y="168.0" width="5.3" height="12.2" fill="#ef5350" rx="1"/>
<line x1="177.5" y1="172.0" x2="177.5" y2="190.7" stroke="#26a69a" stroke-width="1"/>
<rect x="174.8" y="175.8" width="5.3" height="9.7" fill="#26a69a" rx="1"/>
<line x1="185.7" y1="187.2" x2="185.7" y2="203.7" stroke="#ef5350" stroke-width="1"/>
<rect x="183.1" y="193.2" width="5.3" height="9.8" fill="#ef5350" rx="1"/>
<line x1="194.0" y1="187.4" x2="194.0" y2="217.2" stroke="#ef5350" stroke-width="1"/>
<rect x="191.4" y="197.2" width="5.3" height="9.0" fill="#ef5350" rx="1"/>
<line x1="202.3" y1="198.0" x2="202.3" y2="235.6" stroke="#26a69a" stroke-width="1"/>
<rect x="199.6" y="213.6" width="5.3" height="1.5" fill="#26a69a" rx="1"/>
<line x1="210.5" y1="176.1" x2="210.5" y2="200.9" stroke="#26a69a" stroke-width="1"/>
<rect x="207.9" y="178.1" width="5.3" height="20.7" fill="#26a69a" rx="1"/>
<line x1="218.8" y1="174.2" x2="218.8" y2="195.0" stroke="#26a69a" stroke-width="1"/>
<rect x="216.2" y="175.9" width="5.3" height="8.1" fill="#26a69a" rx="1"/>
<line x1="227.1" y1="142.2" x2="227.1" y2="163.1" stroke="#ef5350" stroke-width="1"/>
<rect x="224.4" y="154.4" width="5.3" height="2.5" fill="#ef5350" rx="1"/>
<line x1="235.3" y1="115.1" x2="235.3" y2="143.4" stroke="#26a69a" stroke-width="1"/>
<rect x="232.7" y="118.3" width="5.3" height="20.3" fill="#26a69a" rx="1"/>
<line x1="243.6" y1="111.6" x2="243.6" y2="136.6" stroke="#ef5350" stroke-width="1"/>
<rect x="241.0" y="114.0" width="5.3" height="13.2" fill="#ef5350" rx="1"/>
<line x1="251.9" y1="93.6" x2="251.9" y2="129.3" stroke="#26a69a" stroke-width="1"/>
<rect x="249.2" y="103.3" width="5.3" height="20.2" fill="#26a69a" rx="1"/>
<line x1="260.1" y1="99.1" x2="260.1" y2="118.8" stroke="#ef5350" stroke-width="1"/>
<rect x="257.5" y="100.4" width="5.3" height="5.0" fill="#ef5350" rx="1"/>
<line x1="268.4" y1="103.9" x2="268.4" y2="136.5" stroke="#26a69a" stroke-width="1"/>
<rect x="265.8" y="111.7" width="5.3" height="10.6" fill="#26a69a" rx="1"/>
<line x1="276.7" y1="98.6" x2="276.7" y2="121.2" stroke="#26a69a" stroke-width="1"/>
<rect x="274.0" y="99.6" width="5.3" height="16.2" fill="#26a69a" rx="1"/>
<line x1="284.9" y1="73.2" x2="284.9" y2="96.7" stroke="#26a69a" stroke-width="1"/>
<rect x="282.3" y="77.3" width="5.3" height="9.3" fill="#26a69a" rx="1"/>
<line x1="293.2" y1="88.3" x2="293.2" y2="122.6" stroke="#26a69a" stroke-width="1"/>
<rect x="290.6" y="97.8" width="5.3" height="9.0" fill="#26a69a" rx="1"/>
<line x1="301.5" y1="116.5" x2="301.5" y2="160.7" stroke="#ef5350" stroke-width="1"/>
<rect x="298.8" y="122.9" width="5.3" height="35.2" fill="#ef5350" rx="1"/>
<line x1="309.7" y1="127.8" x2="309.7" y2="146.1" stroke="#26a69a" stroke-width="1"/>
<rect x="307.1" y="132.7" width="5.3" height="5.7" fill="#26a69a" rx="1"/>
<line x1="318.0" y1="117.1" x2="318.0" y2="189.0" stroke="#ef5350" stroke-width="1"/>
<rect x="315.4" y="119.5" width="5.3" height="28.9" fill="#ef5350" rx="1"/>
<line x1="326.3" y1="146.4" x2="326.3" y2="177.3" stroke="#ef5350" stroke-width="1"/>
<rect x="323.6" y="156.4" width="5.3" height="16.5" fill="#ef5350" rx="1"/>
<line x1="334.5" y1="132.6" x2="334.5" y2="167.0" stroke="#26a69a" stroke-width="1"/>
<rect x="331.9" y="134.7" width="5.3" height="28.5" fill="#26a69a" rx="1"/>
<line x1="342.8" y1="99.4" x2="342.8" y2="128.8" stroke="#26a69a" stroke-width="1"/>
<rect x="340.2" y="110.2" width="5.3" height="12.6" fill="#26a69a" rx="1"/>
<line x1="351.1" y1="60.5" x2="351.1" y2="90.1" stroke="#26a69a" stroke-width="1"/>
<rect x="348.4" y="72.3" width="5.3" height="12.2" fill="#26a69a" rx="1"/>
<line x1="359.3" y1="70.5" x2="359.3" y2="114.8" stroke="#ef5350" stroke-width="1"/>
<rect x="356.7" y="72.7" width="5.3" height="42.0" fill="#ef5350" rx="1"/>
<line x1="367.6" y1="88.0" x2="367.6" y2="114.7" stroke="#ef5350" stroke-width="1"/>
<rect x="365.0" y="91.0" width="5.3" height="18.2" fill="#ef5350" rx="1"/>
<line x1="375.9" y1="80.3" x2="375.9" y2="94.5" stroke="#26a69a" stroke-width="1"/>
<rect x="373.2" y="82.8" width="5.3" height="6.1" fill="#26a69a" rx="1"/>
<line x1="384.1" y1="55.6" x2="384.1" y2="84.6" stroke="#26a69a" stroke-width="1"/>
<rect x="381.5" y="67.7" width="5.3" height="6.5" fill="#26a69a" rx="1"/>
<line x1="392.4" y1="92.2" x2="392.4" y2="115.2" stroke="#26a69a" stroke-width="1"/>
<rect x="389.8" y="101.4" width="5.3" height="11.4" fill="#26a69a" rx="1"/>
<line x1="400.7" y1="96.0" x2="400.7" y2="118.7" stroke="#ef5350" stroke-width="1"/>
<rect x="398.0" y="100.4" width="5.3" height="1.2" fill="#ef5350" rx="1"/>
<line x1="408.9" y1="68.5" x2="408.9" y2="115.0" stroke="#ef5350" stroke-width="1"/>
<rect x="406.3" y="75.9" width="5.3" height="12.1" fill="#ef5350" rx="1"/>
<line x1="417.2" y1="95.8" x2="417.2" y2="119.7" stroke="#26a69a" stroke-width="1"/>
<rect x="414.6" y="99.6" width="5.3" height="1.9" fill="#26a69a" rx="1"/>
<line x1="425.5" y1="77.7" x2="425.5" y2="127.4" stroke="#26a69a" stroke-width="1"/>
<rect x="422.8" y="80.6" width="5.3" height="17.7" fill="#26a69a" rx="1"/>
<line x1="433.7" y1="32.6" x2="433.7" y2="74.1" stroke="#26a69a" stroke-width="1"/>
<rect x="431.1" y="36.6" width="5.3" height="37.5" fill="#26a69a" rx="1"/>
<line x1="442.0" y1="54.5" x2="442.0" y2="81.4" stroke="#ef5350" stroke-width="1"/>
<rect x="439.4" y="61.4" width="5.3" height="17.7" fill="#ef5350" rx="1"/>
<line x1="450.3" y1="71.9" x2="450.3" y2="116.1" stroke="#ef5350" stroke-width="1"/>
<rect x="447.6" y="82.0" width="5.3" height="21.6" fill="#ef5350" rx="1"/>
<line x1="458.5" y1="45.5" x2="458.5" y2="93.8" stroke="#26a69a" stroke-width="1"/>
<rect x="455.9" y="67.2" width="5.3" height="17.7" fill="#26a69a" rx="1"/>
<line x1="466.8" y1="96.0" x2="466.8" y2="119.2" stroke="#26a69a" stroke-width="1"/>
<rect x="464.2" y="105.4" width="5.3" height="1.2" fill="#26a69a" rx="1"/>
<line x1="475.1" y1="98.1" x2="475.1" y2="124.4" stroke="#26a69a" stroke-width="1"/>
<rect x="472.4" y="104.0" width="5.3" height="13.4" fill="#26a69a" rx="1"/>
<line x1="483.3" y1="59.3" x2="483.3" y2="85.1" stroke="#26a69a" stroke-width="1"/>
<rect x="480.7" y="72.9" width="5.3" height="10.0" fill="#26a69a" rx="1"/>
<line x1="491.6" y1="58.5" x2="491.6" y2="80.0" stroke="#26a69a" stroke-width="1"/>
<rect x="489.0" y="61.0" width="5.3" height="14.7" fill="#26a69a" rx="1"/>
<line x1="499.9" y1="67.4" x2="499.9" y2="93.9" stroke="#ef5350" stroke-width="1"/>
<rect x="497.2" y="82.7" width="5.3" height="3.3" fill="#ef5350" rx="1"/>
<line x1="508.1" y1="43.7" x2="508.1" y2="72.8" stroke="#ef5350" stroke-width="1"/>
<rect x="505.5" y="51.1" width="5.3" height="20.2" fill="#ef5350" rx="1"/>
<line x1="516.4" y1="60.0" x2="516.4" y2="112.3" stroke="#ef5350" stroke-width="1"/>
<rect x="513.8" y="63.0" width="5.3" height="28.5" fill="#ef5350" rx="1"/>
<line x1="524.7" y1="102.6" x2="524.7" y2="131.1" stroke="#ef5350" stroke-width="1"/>
<rect x="522.0" y="112.6" width="5.3" height="8.9" fill="#ef5350" rx="1"/>
<line x1="532.9" y1="116.2" x2="532.9" y2="164.7" stroke="#26a69a" stroke-width="1"/>
<rect x="530.3" y="126.9" width="5.3" height="20.0" fill="#26a69a" rx="1"/>
<line x1="541.2" y1="98.6" x2="541.2" y2="119.9" stroke="#ef5350" stroke-width="1"/>
<rect x="538.6" y="104.4" width="5.3" height="14.2" fill="#ef5350" rx="1"/>
<line x1="549.5" y1="71.4" x2="549.5" y2="98.5" stroke="#26a69a" stroke-width="1"/>
<rect x="546.8" y="75.3" width="5.3" height="19.5" fill="#26a69a" rx="1"/>
<line x1="557.7" y1="57.2" x2="557.7" y2="94.2" stroke="#26a69a" stroke-width="1"/>
<rect x="555.1" y="66.9" width="5.3" height="27.0" fill="#26a69a" rx="1"/>
<line x1="566.0" y1="62.5" x2="566.0" y2="95.9" stroke="#ef5350" stroke-width="1"/>
<rect x="563.4" y="75.0" width="5.3" height="5.4" fill="#ef5350" rx="1"/>
<line x1="574.3" y1="70.5" x2="574.3" y2="103.4" stroke="#ef5350" stroke-width="1"/>
<rect x="571.6" y="72.7" width="5.3" height="26.5" fill="#ef5350" rx="1"/>
<line x1="582.5" y1="92.7" x2="582.5" y2="146.9" stroke="#ef5350" stroke-width="1"/>
<rect x="579.9" y="93.3" width="5.3" height="34.5" fill="#ef5350" rx="1"/>
<line x1="590.8" y1="151.4" x2="590.8" y2="183.7" stroke="#ef5350" stroke-width="1"/>
<rect x="588.2" y="157.5" width="5.3" height="13.1" fill="#ef5350" rx="1"/>
<line x1="599.1" y1="167.8" x2="599.1" y2="203.0" stroke="#ef5350" stroke-width="1"/>
<rect x="596.4" y="172.6" width="5.3" height="24.5" fill="#ef5350" rx="1"/>
<line x1="607.3" y1="124.4" x2="607.3" y2="167.3" stroke="#26a69a" stroke-width="1"/>
<rect x="604.7" y="137.9" width="5.3" height="26.9" fill="#26a69a" rx="1"/>
<line x1="615.6" y1="105.9" x2="615.6" y2="148.2" stroke="#ef5350" stroke-width="1"/>
<rect x="613.0" y="111.5" width="5.3" height="36.2" fill="#ef5350" rx="1"/>
<line x1="623.9" y1="132.0" x2="623.9" y2="169.9" stroke="#26a69a" stroke-width="1"/>
<rect x="621.2" y="138.7" width="5.3" height="24.2" fill="#26a69a" rx="1"/>
<line x1="632.1" y1="90.5" x2="632.1" y2="120.1" stroke="#26a69a" stroke-width="1"/>
<rect x="629.5" y="102.7" width="5.3" height="15.5" fill="#26a69a" rx="1"/>
<line x1="640.4" y1="120.3" x2="640.4" y2="145.6" stroke="#ef5350" stroke-width="1"/>
<rect x="637.8" y="138.9" width="5.3" height="2.6" fill="#ef5350" rx="1"/>
<line x1="648.7" y1="125.9" x2="648.7" y2="154.8" stroke="#26a69a" stroke-width="1"/>
<rect x="646.0" y="133.8" width="5.3" height="18.6" fill="#26a69a" rx="1"/>
<line x1="656.9" y1="123.5" x2="656.9" y2="147.8" stroke="#ef5350" stroke-width="1"/>
<rect x="654.3" y="124.6" width="5.3" height="15.5" fill="#ef5350" rx="1"/>
<line x1="665.2" y1="140.1" x2="665.2" y2="155.0" stroke="#ef5350" stroke-width="1"/>
<rect x="662.6" y="146.8" width="5.3" height="8.0" fill="#ef5350" rx="1"/>
<line x1="673.5" y1="147.9" x2="673.5" y2="161.5" stroke="#ef5350" stroke-width="1"/>
<rect x="670.8" y="149.2" width="5.3" height="1.2" fill="#ef5350" rx="1"/>
<line x1="681.7" y1="131.3" x2="681.7" y2="142.7" stroke="#ef5350" stroke-width="1"/>
<rect x="679.1" y="134.8" width="5.3" height="5.7" fill="#ef5350" rx="1"/>
<line x1="690.0" y1="124.6" x2="690.0" y2="142.6" stroke="#26a69a" stroke-width="1"/>
<rect x="687.4" y="140.5" width="5.3" height="1.2" fill="#26a69a" rx="1"/>
<line x1="698.3" y1="106.9" x2="698.3" y2="140.3" stroke="#26a69a" stroke-width="1"/>
<rect x="695.6" y="107.2" width="5.3" height="28.4" fill="#26a69a" rx="1"/>
<line x1="706.5" y1="104.0" x2="706.5" y2="117.7" stroke="#ef5350" stroke-width="1"/>
<rect x="703.9" y="107.4" width="5.3" height="8.7" fill="#ef5350" rx="1"/>
<line x1="714.8" y1="131.1" x2="714.8" y2="149.0" stroke="#ef5350" stroke-width="1"/>
<rect x="712.2" y="135.6" width="5.3" height="3.4" fill="#ef5350" rx="1"/>
<line x1="723.1" y1="136.2" x2="723.1" y2="162.2" stroke="#ef5350" stroke-width="1"/>
<rect x="720.4" y="137.2" width="5.3" height="20.9" fill="#ef5350" rx="1"/>
<line x1="731.3" y1="148.4" x2="731.3" y2="164.6" stroke="#26a69a" stroke-width="1"/>
<rect x="728.7" y="154.8" width="5.3" height="4.0" fill="#26a69a" rx="1"/>
<line x1="739.6" y1="146.5" x2="739.6" y2="162.6" stroke="#ef5350" stroke-width="1"/>
<rect x="737.0" y="147.4" width="5.3" height="3.4" fill="#ef5350" rx="1"/>
<line x1="747.9" y1="155.8" x2="747.9" y2="174.4" stroke="#ef5350" stroke-width="1"/>
<rect x="745.2" y="155.8" width="5.3" height="12.5" fill="#ef5350" rx="1"/>
<text x="8" y="414" fill="#8b98a9" font-size="11">584.73</text>
<text x="752" y="414" text-anchor="end" fill="#8b98a9" font-size="11">261.51</text>
</svg>