<svg xmlns="http://www.w3.org/2000/svg" width="760" height="420" viewBox="0 0 760 420" font-family="system-ui,Segoe UI,Roboto,sans-serif">
<rect width="760" height="420" fill="#0b0f14"/>
<line x1="8" y1="12.0" x2="752" y2="12.0" stroke="#1c2530" stroke-width="1"/>
<line x1="8" y1="108.0" x2="752" y2="108.0" stroke="#1c2530" stroke-width="1"/>
<line x1="8" y1="204.0" x2="752" y2="204.0" stroke="#1c2530" stroke-width="1"/>
<line x1="8" y1="300.0" x2="752" y2="300.0" stroke="#1c2530" stroke-width="1"/>
<line x1="8" y1="396.0" x2="752" y2="396.0" stroke="#1c2530" stroke-width="1"/>
<polyline points="169.2,209.8 177.5,207.6 185.7,205.3 194.0,204.2 202.3,204.1 210.5,204.1 218.8,202.4 227.1,200.0 235.3,197.4 243.6,194.3 251.9,189.2 260.1,181.1 268.4,171.4 276.7,163.2 284.9,157.6 293.2,152.2 301.5,149.8 309.7,147.8 318.0,146.2 326.3,144.4 334.5,145.1 342.8,146.6 351.1,146.6 359.3,146.4 367.6,146.1 375.9,146.6 384.1,148.5 392.4,151.9 400.7,156.4 408.9,161.3 417.2,168.3 425.5,178.2 433.7,191.0 442.0,204.0 450.3,215.4 458.5,227.1 466.8,236.2 475.1,245.3 483.3,253.1 491.6,260.7 499.9,267.3 508.1,274.3 516.4,281.9 524.7,290.0 532.9,297.1 541.2,305.0 549.5,311.1 557.7,316.0 566.0,320.7 574.3,325.4 582.5,329.0 590.8,332.4 599.1,336.0 607.3,337.9 615.6,339.1 623.9,339.3 632.1,338.7 640.4,338.2 648.7,338.2 656.9,337.4 665.2,334.9 673.5,332.7 681.7,330.0 690.0,326.0 698.3,322.9 706.5,319.7 714.8,317.7 723.1,315.4 731.3,312.6 739.6,308.6 747.9,305.7" fill="none" stroke="#fbbf24" stroke-width="1.5" opacity="0.9"/>
<polyline points="499.9,207.4 508.1,209.5 516.4,211.3 524.7,213.5 532.9,215.8 541.2,218.6 549.5,220.6 557.7,222.6 566.0,224.8 574.3,227.0 582.5,228.8 590.8,230.5 599.1,232.8 607.3,235.0 615.6,237.3 623.9,239.5 632.1,241.6 640.4,243.7 648.7,245.8 656.9,247.5 665.2,249.1 673.5,251.2 681.7,252.8 690.0,254.1 698.3,255.4 706.5,257.1 714.8,259.1 723.1,261.1 731.3,263.2 739.6,265.1 747.9,267.7" fill="none" stroke="#60a5fa" stroke-width="1.5" opacity="0.9"/>
<line x1="12.1" y1="209.8" x2="12.1" y2="226.2" stroke="#26a69a" stroke-width="1"/>
<rect x="9.5" y="214.7" width="5.3" height="4.9" fill="#26a69a" rx="1"/>
<line x1="20.4" y1="199.1" x2="20.4" y2="227.3" stroke="#ef5350" stroke-width="1"/>
<rect x="17.8" y="203.1" width="5.3" height="19.9" fill="#ef5350" rx="1"/>
<line x1="28.7" y1="216.2" x2="28.7" y2="227.0" stroke="#26a69a" stroke-width="1"/>
<rect x="26.0" y="216.6" width="5.3" height="2.0" fill="#26a69a" rx="1"/>
<line x1="36.9" y1="197.0" x2="36.9" y2="220.6" stroke="#26a69a" stroke-width="1"/>
<rect x="34.3" y="207.5" width="5.3" height="7.1" fill="#26a69a" rx="1"/>
<line x1="45.2" y1="187.3" x2="45.2" y2="203.4" stroke="#26a69a" stroke-width="1"/>
<rect x="42.6" y="191.5" width="5.3" height="3.3" fill="#26a69a" rx="1"/>
<line x1="53.5" y1="205.7" x2="53.5" y2="225.5" stroke="#ef5350" stroke-width="1"/>
<rect x="50.8" y="209.5" width="5.3" height="10.4" fill="#ef5350" rx="1"/>
<line x1="61.7" y1="208.7" x2="61.7" y2="238.9" stroke="#ef5350" stroke-width="1"/>
<rect x="59.1" y="209.2" width="5.3" height="18.3" fill="#ef5350" rx="1"/>
<line x1="70.0" y1="226.9" x2="70.0" y2="241.2" stroke="#26a69a" stroke-width="1"/>
<rect x="67.4" y="228.4" width="5.3" height="1.2" fill="#26a69a" rx="1"/>
<line x1="78.3" y1="239.1" x2="78.3" y2="256.0" stroke="#26a69a" stroke-width="1"/>
<rect x="75.6" y="246.1" width="5.3" height="9.6" fill="#26a69a" rx="1"/>
<line x1="86.5" y1="249.1" x2="86.5" y2="259.5" stroke="#ef5350" stroke-width="1"/>
<rect x="83.9" y="250.9" width="5.3" height="1.2" fill="#ef5350" rx="1"/>
<line x1="94.8" y1="248.1" x2="94.8" y2="260.3" stroke="#ef5350" stroke-width="1"/>
<rect x="92.2" y="256.1" width="5.3" height="1.6" fill="#ef5350" rx="1"/>
<line x1="103.1" y1="225.0" x2="103.1" y2="245.6" stroke="#26a69a" stroke-width="1"/>
<rect x="100.4" y="231.2" width="5.3" height="13.7" fill="#26a69a" rx="1"/>
<line x1="111.3" y1="201.6" x2="111.3" y2="225.1" stroke="#26a69a" stroke-width="1"/>
<rect x="108.7" y="209.8" width="5.3" height="10.8" fill="#26a69a" rx="1"/>
<line x1="119.6" y1="194.0" x2="119.6" y2="213.1" stroke="#26a69a" stroke-width="1"/>
<rect x="117.0" y="197.0" width="5.3" height="8.2" fill="#26a69a" rx="1"/>
<line x1="127.9" y1="174.3" x2="127.9" y2="203.8" stroke="#26a69a" stroke-width="1"/>
<rect x="125.2" y="175.0" width="5.3" height="19.8" fill="#26a69a" rx="1"/>
<line x1="136.1" y1="159.5" x2="136.1" y2="183.2" stroke="#ef5350" stroke-width="1"/>
<rect x="133.5" y="163.4" width="5.3" height="10.2" fill="#ef5350" rx="1"/>
<line x1="144.4" y1="164.9" x2="144.4" y2="184.7" stroke="#26a69a" stroke-width="1"/>
<rect x="141.8" y="170.1" width="5.3" height="8.5" fill="#26a69a" rx="1"/>
<line x1="152.7" y1="170.8" x2="152.7" y2="183.7" stroke="#26a69a" stroke-width="1"/>
<rect x="150.0" y="175.5" width="5.3" height="4.3" fill="#26a69a" rx="1"/>
<line x1="160.9" y1="177.8" x2="160.9" y2="208.3" stroke="#ef5350" stroke-width="1"/>
<rect x="158.3" y="177.8" width="5.3" height="15.4" fill="#ef5350" rx="1"/>
<line x1="169.2" y1="181.2" x2="169.2" y2="197.7" stroke="#26a69a" stroke-width="1"/>
<rect x="166.6" y="185.8" width="5.3" height="1.9" fill="#26a69a" rx="1"/>
<line x1="177.5" y1="158.1" x2="177.5" y2="196.7" stroke="#26a69a" stroke-width="1"/>
<rect x="174.8" y="171.0" width="5.3" height="18.8" fill="#26a69a" rx="1"/>
<line x1="185.7" y1="168.9" x2="185.7" y2="188.0" stroke="#26a69a" stroke-width="1"/>
<rect x="183.1" y="177.7" width="5.3" height="6.2" fill="#26a69a" rx="1"/>
<line x1="194.0" y1="183.3" x2="194.0" y2="202.2" stroke="#ef5350" stroke-width="1"/>
<rect x="191.4" y="185.2" width="5.3" height="8.6" fill="#ef5350" rx="1"/>
<line x1="202.3" y1="188.4" x2="202.3" y2="208.2" stroke="#ef5350" stroke-width="1"/>
<rect x="199.6" y="195.3" width="5.3" height="11.5" fill="#ef5350" rx="1"/>
<line x1="210.5" y1="189.7" x2="210.5" y2="213.6" stroke="#26a69a" stroke-width="1"/>
<rect x="207.9" y="189.9" width="5.3" height="20.8" fill="#26a69a" rx="1"/>
<line x1="218.8" y1="178.0" x2="218.8" y2="192.3" stroke="#26a69a" stroke-width="1"/>
<rect x="216.2" y="185.8" width="5.3" height="1.9" fill="#26a69a" rx="1"/>
<line x1="227.1" y1="167.5" x2="227.1" y2="182.4" stroke="#26a69a" stroke-width="1"/>
<rect x="224.4" y="179.9" width="5.3" height="1.2" fill="#26a69a" rx="1"/>
<line x1="235.3" y1="172.0" x2="235.3" y2="183.8" stroke="#ef5350" stroke-width="1"/>
<rect x="232.7" y="176.8" width="5.3" height="1.2" fill="#ef5350" rx="1"/>
<line x1="243.6" y1="179.8" x2="243.6" y2="190.5" stroke="#ef5350" stroke-width="1"/>
<rect x="241.0" y="181.4" width="5.3" height="1.3" fill="#ef5350" rx="1"/>
<line x1="251.9" y1="147.2" x2="251.9" y2="176.6" stroke="#26a69a" stroke-width="1"/>
<rect x="249.2" y="150.5" width="5.3" height="24.5" fill="#26a69a" rx="1"/>
<line x1="260.1" y1="93.3" x2="260.1" y2="139.6" stroke="#26a69a" stroke-width="1"/>
<rect x="257.5" y="94.5" width="5.3" height="42.5" fill="#26a69a" rx="1"/>
<line x1="268.4" y1="32.6" x2="268.4" y2="97.5" stroke="#26a69a" stroke-width="1"/>
<rect x="265.8" y="37.9" width="5.3" height="44.7" fill="#26a69a" rx="1"/>
<line x1="276.7" y1="35.7" x2="276.7" y2="61.5" stroke="#26a69a" stroke-width="1"/>
<rect x="274.0" y="46.9" width="5.3" height="4.5" fill="#26a69a" rx="1"/>
<line x1="284.9" y1="57.2" x2="284.9" y2="89.9" stroke="#ef5350" stroke-width="1"/>
<rect x="282.3" y="57.3" width="5.3" height="25.7" fill="#ef5350" rx="1"/>
<line x1="293.2" y1="61.2" x2="293.2" y2="99.0" stroke="#26a69a" stroke-width="1"/>
<rect x="290.6" y="67.8" width="5.3" height="23.6" fill="#26a69a" rx="1"/>
<line x1="301.5" y1="80.2" x2="301.5" y2="135.9" stroke="#ef5350" stroke-width="1"/>
<rect x="298.8" y="85.1" width="5.3" height="40.1" fill="#ef5350" rx="1"/>
<line x1="309.7" y1="111.6" x2="309.7" y2="136.2" stroke="#ef5350" stroke-width="1"/>
<rect x="307.1" y="114.9" width="5.3" height="15.0" fill="#ef5350" rx="1"/>
<line x1="318.0" y1="107.9" x2="318.0" y2="165.4" stroke="#ef5350" stroke-width="1"/>
<rect x="315.4" y="124.6" width="5.3" height="20.5" fill="#ef5350" rx="1"/>
<line x1="326.3" y1="128.2" x2="326.3" y2="164.5" stroke="#26a69a" stroke-width="1"/>
<rect x="323.6" y="156.7" width="5.3" height="7.0" fill="#26a69a" rx="1"/>
<line x1="334.5" y1="198.4" x2="334.5" y2="222.5" stroke="#26a69a" stroke-width="1"/>
<rect x="331.9" y="200.1" width="5.3" height="11.2" fill="#26a69a" rx="1"/>
<line x1="342.8" y1="196.4" x2="342.8" y2="213.1" stroke="#ef5350" stroke-width="1"/>
<rect x="340.2" y="197.8" width="5.3" height="2.2" fill="#ef5350" rx="1"/>
<line x1="351.1" y1="171.7" x2="351.1" y2="194.8" stroke="#26a69a" stroke-width="1"/>
<rect x="348.4" y="178.5" width="5.3" height="13.3" fill="#26a69a" rx="1"/>
<line x1="359.3" y1="171.7" x2="359.3" y2="191.1" stroke="#ef5350" stroke-width="1"/>
<rect x="356.7" y="185.2" width="5.3" height="4.3" fill="#ef5350" rx="1"/>
<line x1="367.6" y1="184.7" x2="367.6" y2="204.0" stroke="#ef5350" stroke-width="1"/>
<rect x="365.0" y="194.9" width="5.3" height="6.7" fill="#ef5350" rx="1"/>
<line x1="375.9" y1="190.3" x2="375.9" y2="216.3" stroke="#26a69a" stroke-width="1"/>
<rect x="373.2" y="199.6" width="5.3" height="3.3" fill="#26a69a" rx="1"/>
<line x1="384.1" y1="198.9" x2="384.1" y2="224.7" stroke="#ef5350" stroke-width="1"/>
<rect x="381.5" y="204.7" width="5.3" height="18.3" fill="#ef5350" rx="1"/>
<line x1="392.4" y1="224.9" x2="392.4" y2="249.5" stroke="#ef5350" stroke-width="1"/>
<rect x="389.8" y="235.3" width="5.3" height="12.8" fill="#ef5350" rx="1"/>
<line x1="400.7" y1="246.6" x2="400.7" y2="273.0" stroke="#ef5350" stroke-width="1"/>
<rect x="398.0" y="254.9" width="5.3" height="12.5" fill="#ef5350" rx="1"/>
<line x1="408.9" y1="267.2" x2="408.9" y2="285.6" stroke="#ef5350" stroke-width="1"/>
<rect x="406.3" y="267.9" width="5.3" height="12.4" fill="#ef5350" rx="1"/>
<line x1="417.2" y1="277.6" x2="417.2" y2="291.6" stroke="#ef5350" stroke-width="1"/>
<rect x="414.6" y="285.9" width="5.3" height="4.4" fill="#ef5350" rx="1"/>
<line x1="425.5" y1="275.1" x2="425.5" y2="298.7" stroke="#ef5350" stroke-width="1"/>
<rect x="422.8" y="276.5" width="5.3" height="15.7" fill="#ef5350" rx="1"/>
<line x1="433.7" y1="286.7" x2="433.7" y2="300.5" stroke="#ef5350" stroke-width="1"/>
<rect x="431.1" y="293.5" width="5.3" height="1.8" fill="#ef5350" rx="1"/>
<line x1="442.0" y1="292.7" x2="442.0" y2="305.5" stroke="#ef5350" stroke-width="1"/>
<rect x="439.4" y="300.5" width="5.3" height="5.0" fill="#ef5350" rx="1"/>
<line x1="450.3" y1="294.0" x2="450.3" y2="314.8" stroke="#ef5350" stroke-width="1"/>
<rect x="447.6" y="303.5" width="5.3" height="7.7" fill="#ef5350" rx="1"/>
<line x1="458.5" y1="297.6" x2="458.5" y2="308.9" stroke="#ef5350" stroke-width="1"/>
<rect x="455.9" y="300.9" width="5.3" height="1.4" fill="#ef5350" rx="1"/>
<line x1="466.8" y1="297.8" x2="466.8" y2="318.1" stroke="#ef5350" stroke-width="1"/>
<rect x="464.2" y="302.4" width="5.3" height="5.4" fill="#ef5350" rx="1"/>
<line x1="475.1" y1="307.2" x2="475.1" y2="318.1" stroke="#26a69a" stroke-width="1"/>
<rect x="472.4" y="310.6" width="5.3" height="3.6" fill="#26a69a" rx="1"/>
<line x1="483.3" y1="288.9" x2="483.3" y2="309.5" stroke="#26a69a" stroke-width="1"/>
<rect x="480.7" y="301.1" width="5.3" height="7.1" fill="#26a69a" rx="1"/>
<line x1="491.6" y1="296.2" x2="491.6" y2="312.5" stroke="#ef5350" stroke-width="1"/>
<rect x="489.0" y="296.2" width="5.3" height="12.7" fill="#ef5350" rx="1"/>
<line x1="499.9" y1="311.5" x2="499.9" y2="332.6" stroke="#ef5350" stroke-width="1"/>
<rect x="497.2" y="313.1" width="5.3" height="19.0" fill="#ef5350" rx="1"/>
<line x1="508.1" y1="329.0" x2="508.1" y2="342.1" stroke="#ef5350" stroke-width="1"/>
<rect x="505.5" y="330.9" width="5.3" height="10.3" fill="#ef5350" rx="1"/>
<line x1="516.4" y1="326.1" x2="516.4" y2="339.0" stroke="#26a69a" stroke-width="1"/>
<rect x="513.8" y="329.7" width="5.3" height="4.9" fill="#26a69a" rx="1"/>
<line x1="524.7" y1="331.5" x2="524.7" y2="352.1" stroke="#ef5350" stroke-width="1"/>
<rect x="522.0" y="332.3" width="5.3" height="18.5" fill="#ef5350" rx="1"/>
<line x1="532.9" y1="340.0" x2="532.9" y2="357.6" stroke="#26a69a" stroke-width="1"/>
<rect x="530.3" y="345.2" width="5.3" height="12.0" fill="#26a69a" rx="1"/>
<line x1="541.2" y1="347.5" x2="541.2" y2="361.4" stroke="#ef5350" stroke-width="1"/>
<rect x="538.6" y="350.6" width="5.3" height="7.3" fill="#ef5350" rx="1"/>
<line x1="549.5" y1="342.6" x2="549.5" y2="355.8" stroke="#26a69a" stroke-width="1"/>
<rect x="546.8" y="343.5" width="5.3" height="10.8" fill="#26a69a" rx="1"/>
<line x1="557.7" y1="339.0" x2="557.7" y2="349.5" stroke="#ef5350" stroke-width="1"/>
<rect x="555.1" y="345.7" width="5.3" height="1.2" fill="#ef5350" rx="1"/>
<line x1="566.0" y1="349.5" x2="566.0" y2="362.9" stroke="#ef5350" stroke-width="1"/>
<rect x="563.4" y="351.4" width="5.3" height="10.0" fill="#ef5350" rx="1"/>
<line x1="574.3" y1="353.6" x2="574.3" y2="374.8" stroke="#ef5350" stroke-width="1"/>
<rect x="571.6" y="355.2" width="5.3" height="19.0" fill="#ef5350" rx="1"/>
<line x1="582.5" y1="356.4" x2="582.5" y2="369.6" stroke="#26a69a" stroke-width="1"/>
<rect x="579.9" y="361.7" width="5.3" height="4.8" fill="#26a69a" rx="1"/>
<line x1="590.8" y1="355.5" x2="590.8" y2="375.4" stroke="#26a69a" stroke-width="1"/>
<rect x="588.2" y="361.5" width="5.3" height="4.5" fill="#26a69a" rx="1"/>
<line x1="599.1" y1="356.6" x2="599.1" y2="371.1" stroke="#ef5350" stroke-width="1"/>
<rect x="596.4" y="362.9" width="5.3" height="4.3" fill="#ef5350" rx="1"/>
<line x1="607.3" y1="340.2" x2="607.3" y2="357.4" stroke="#26a69a" stroke-width="1"/>
<rect x="604.7" y="342.2" width="5.3" height="11.9" fill="#26a69a" rx="1"/>
<line x1="615.6" y1="329.9" x2="615.6" y2="347.0" stroke="#ef5350" stroke-width="1"/>
<rect x="613.0" y="335.8" width="5.3" height="1.2" fill="#ef5350" rx="1"/>
<line x1="623.9" y1="302.8" x2="623.9" y2="335.5" stroke="#26a69a" stroke-width="1"/>
<rect x="621.2" y="305.9" width="5.3" height="25.2" fill="#26a69a" rx="1"/>
<line x1="632.1" y1="288.5" x2="632.1" y2="308.0" stroke="#26a69a" stroke-width="1"/>
<rect x="629.5" y="296.0" width="5.3" height="12.0" fill="#26a69a" rx="1"/>
<line x1="640.4" y1="294.4" x2="640.4" y2="304.2" stroke="#ef5350" stroke-width="1"/>
<rect x="637.8" y="297.9" width="5.3" height="1.6" fill="#ef5350" rx="1"/>
<line x1="648.7" y1="293.9" x2="648.7" y2="313.9" stroke="#26a69a" stroke-width="1"/>
<rect x="646.0" y="301.8" width="5.3" height="10.7" fill="#26a69a" rx="1"/>
<line x1="656.9" y1="292.4" x2="656.9" y2="304.7" stroke="#26a69a" stroke-width="1"/>
<rect x="654.3" y="292.8" width="5.3" height="4.3" fill="#26a69a" rx="1"/>
<line x1="665.2" y1="280.1" x2="665.2" y2="293.8" stroke="#26a69a" stroke-width="1"/>
<rect x="662.6" y="282.5" width="5.3" height="7.1" fill="#26a69a" rx="1"/>
<line x1="673.5" y1="280.1" x2="673.5" y2="299.8" stroke="#ef5350" stroke-width="1"/>
<rect x="670.8" y="282.1" width="5.3" height="14.5" fill="#ef5350" rx="1"/>
<line x1="681.7" y1="272.8" x2="681.7" y2="290.5" stroke="#26a69a" stroke-width="1"/>
<rect x="679.1" y="276.8" width="5.3" height="1.2" fill="#26a69a" rx="1"/>
<line x1="690.0" y1="261.6" x2="690.0" y2="280.3" stroke="#26a69a" stroke-width="1"/>
<rect x="687.4" y="269.4" width="5.3" height="10.8" fill="#26a69a" rx="1"/>
<line x1="698.3" y1="268.9" x2="698.3" y2="288.2" stroke="#ef5350" stroke-width="1"/>
<rect x="695.6" y="270.3" width="5.3" height="13.5" fill="#ef5350" rx="1"/>
<line x1="706.5" y1="284.2" x2="706.5" y2="296.6" stroke="#ef5350" stroke-width="1"/>
<rect x="703.9" y="289.1" width="5.3" height="4.6" fill="#ef5350" rx="1"/>
<line x1="714.8" y1="295.4" x2="714.8" y2="304.6" stroke="#ef5350" stroke-width="1"/>
<rect x="712.2" y="302.3" width="5.3" height="1.2" fill="#ef5350" rx="1"/>
<line x1="723.1" y1="295.1" x2="723.1" y2="317.1" stroke="#26a69a" stroke-width="1"/>
<rect x="720.4" y="300.9" width="5.3" height="2.8" fill="#26a69a" rx="1"/>
<line x1="731.3" y1="295.6" x2="731.3" y2="308.0" stroke="#ef5350" stroke-width="1"/>
<rect x="728.7" y="299.7" width="5.3" height="5.7" fill="#ef5350" rx="1"/>
<line x1="739.6" y1="289.4" x2="739.6" y2="304.0" stroke="#26a69a" stroke-width="1"/>
<rect x="737.0" y="294.2" width="5.3" height="7.0" fill="#26a69a" rx="1"/>
<line x1="747.9" y1="297.6" x2="747.9" y2="307.4" stroke="#ef5350" stroke-width="1"/>
<rect x="745.2" y="297.6" width="5.3" height="6.8" fill="#ef5350" rx="1"/>
<text x="8" y="414" fill="#8b98a9" font-size="11">249.37</text>
<text x="752" y="414" text-anchor="end" fill="#8b98a9" font-size="11">114.50</text>
</svg>