<svg xmlns="http://www.w3.org/2000/svg" width="760" height="420" viewBox="0 0 760 420" font-family="system-ui,Segoe UI,Roboto,sans-serif">
<rect width="760" height="420" fill="#0b0f14"/>
<line x1="8" y1="12.0" x2="752" y2="12.0" stroke="#1c2530" stroke-width="1"/>
<line x1="8" y1="108.0" x2="752" y2="108.0" stroke="#1c2530" stroke-width="1"/>
<line x1="8" y1="204.0" x2="752" y2="204.0" stroke="#1c2530" stroke-width="1"/>
<line x1="8" y1="300.0" x2="752" y2="300.0" stroke="#1c2530" stroke-width="1"/>
<line x1="8" y1="396.0" x2="752" y2="396.0" stroke="#1c2530" stroke-width="1"/>
<polyline points="169.2,220.0 177.5,222.0 185.7,224.8 194.0,227.2 202.3,229.6 210.5,233.1 218.8,234.1 227.1,235.5 235.3,236.9 243.6,238.9 251.9,237.7 260.1,233.7 268.4,230.0 276.7,228.6 284.9,227.2 293.2,225.4 301.5,225.8 309.7,226.1 318.0,227.1 326.3,228.4 334.5,228.2 342.8,229.5 351.1,229.3 359.3,229.8 367.6,230.8 375.9,232.8 384.1,236.8 392.4,241.4 400.7,246.6 408.9,252.3 417.2,259.1 425.5,268.3 433.7,278.2 442.0,284.2 450.3,287.1 458.5,289.2 466.8,289.4 475.1,290.4 483.3,291.1 491.6,291.8 499.9,292.1 508.1,290.8 516.4,291.0 524.7,290.7 532.9,290.3 541.2,288.9 549.5,285.9 557.7,284.1 566.0,281.9 574.3,278.4 582.5,274.2 590.8,272.4 599.1,271.0 607.3,271.8 615.6,273.2 623.9,274.7 632.1,268.4 640.4,262.5 648.7,256.4 656.9,246.2 665.2,236.0 673.5,226.7 681.7,218.3 690.0,208.3 698.3,198.9 706.5,190.4 714.8,181.7 723.1,170.2 731.3,158.8 739.6,146.0 747.9,136.0" fill="none" stroke="#fbbf24" stroke-width="1.5" opacity="0.9"/>
<polyline points="499.9,246.7 508.1,247.4 516.4,248.4 524.7,249.2 532.9,250.3 541.2,251.6 549.5,252.3 557.7,253.7 566.0,255.1 574.3,256.5 582.5,257.0 590.8,258.2 599.1,259.7 607.3,261.5 615.6,262.5 623.9,263.1 632.1,261.2 640.4,259.6 648.7,258.2 656.9,255.5 665.2,252.1 673.5,249.0 681.7,246.2 690.0,242.9 698.3,240.0 706.5,237.4 714.8,234.8 723.1,231.9 731.3,229.1 739.6,225.5 747.9,223.1" fill="none" stroke="#60a5fa" stroke-width="1.5" opacity="0.9"/>
<line x1="12.1" y1="198.8" x2="12.1" y2="226.0" stroke="#ef5350" stroke-width="1"/>
<rect x="9.5" y="204.5" width="5.3" height="6.9" fill="#ef5350" rx="1"/>
<line x1="20.4" y1="186.5" x2="20.4" y2="209.0" stroke="#26a69a" stroke-width="1"/>
<rect x="17.8" y="195.1" width="5.3" height="4.8" fill="#26a69a" rx="1"/>
<line x1="28.7" y1="191.4" x2="28.7" y2="206.6" stroke="#26a69a" stroke-width="1"/>
<rect x="26.0" y="197.3" width="5.3" height="4.0" fill="#26a69a" rx="1"/>
<line x1="36.9" y1="179.4" x2="36.9" y2="205.8" stroke="#ef5350" stroke-width="1"/>
<rect x="34.3" y="193.2" width="5.3" height="3.8" fill="#ef5350" rx="1"/>
<line x1="45.2" y1="166.7" x2="45.2" y2="190.5" stroke="#26a69a" stroke-width="1"/>
<rect x="42.6" y="167.0" width="5.3" height="19.2" fill="#26a69a" rx="1"/>
<line x1="53.5" y1="177.5" x2="53.5" y2="224.2" stroke="#ef5350" stroke-width="1"/>
<rect x="50.8" y="180.1" width="5.3" height="36.6" fill="#ef5350" rx="1"/>
<line x1="61.7" y1="208.8" x2="61.7" y2="228.7" stroke="#26a69a" stroke-width="1"/>
<rect x="59.1" y="209.9" width="5.3" height="1.2" fill="#26a69a" rx="1"/>
<line x1="70.0" y1="201.0" x2="70.0" y2="219.3" stroke="#26a69a" stroke-width="1"/>
<rect x="67.4" y="209.9" width="5.3" height="8.3" fill="#26a69a" rx="1"/>
<line x1="78.3" y1="206.5" x2="78.3" y2="222.0" stroke="#ef5350" stroke-width="1"/>
<rect x="75.6" y="213.5" width="5.3" height="5.0" fill="#ef5350" rx="1"/>
<line x1="86.5" y1="224.9" x2="86.5" y2="247.8" stroke="#ef5350" stroke-width="1"/>
<rect x="83.9" y="224.9" width="5.3" height="8.1" fill="#ef5350" rx="1"/>
<line x1="94.8" y1="223.0" x2="94.8" y2="239.0" stroke="#26a69a" stroke-width="1"/>
<rect x="92.2" y="227.9" width="5.3" height="2.8" fill="#26a69a" rx="1"/>
<line x1="103.1" y1="194.8" x2="103.1" y2="217.6" stroke="#26a69a" stroke-width="1"/>
<rect x="100.4" y="205.5" width="5.3" height="3.7" fill="#26a69a" rx="1"/>
<line x1="111.3" y1="180.4" x2="111.3" y2="200.3" stroke="#ef5350" stroke-width="1"/>
<rect x="108.7" y="188.9" width="5.3" height="7.8" fill="#ef5350" rx="1"/>
<line x1="119.6" y1="210.4" x2="119.6" y2="247.7" stroke="#ef5350" stroke-width="1"/>
<rect x="117.0" y="222.5" width="5.3" height="19.8" fill="#ef5350" rx="1"/>
<line x1="127.9" y1="243.2" x2="127.9" y2="263.7" stroke="#26a69a" stroke-width="1"/>
<rect x="125.2" y="251.8" width="5.3" height="1.2" fill="#26a69a" rx="1"/>
<line x1="136.1" y1="219.6" x2="136.1" y2="247.4" stroke="#26a69a" stroke-width="1"/>
<rect x="133.5" y="237.1" width="5.3" height="8.8" fill="#26a69a" rx="1"/>
<line x1="144.4" y1="233.4" x2="144.4" y2="255.3" stroke="#26a69a" stroke-width="1"/>
<rect x="141.8" y="233.8" width="5.3" height="8.7" fill="#26a69a" rx="1"/>
<line x1="152.7" y1="236.7" x2="152.7" y2="256.4" stroke="#26a69a" stroke-width="1"/>
<rect x="150.0" y="237.9" width="5.3" height="8.9" fill="#26a69a" rx="1"/>
<line x1="160.9" y1="235.4" x2="160.9" y2="253.3" stroke="#ef5350" stroke-width="1"/>
<rect x="158.3" y="239.2" width="5.3" height="2.7" fill="#ef5350" rx="1"/>
<line x1="169.2" y1="237.4" x2="169.2" y2="274.6" stroke="#ef5350" stroke-width="1"/>
<rect x="166.6" y="250.9" width="5.3" height="17.8" fill="#ef5350" rx="1"/>
<line x1="177.5" y1="248.7" x2="177.5" y2="271.4" stroke="#26a69a" stroke-width="1"/>
<rect x="174.8" y="252.1" width="5.3" height="18.4" fill="#26a69a" rx="1"/>
<line x1="185.7" y1="243.5" x2="185.7" y2="258.6" stroke="#26a69a" stroke-width="1"/>
<rect x="183.1" y="250.9" width="5.3" height="5.4" fill="#26a69a" rx="1"/>
<line x1="194.0" y1="242.2" x2="194.0" y2="262.9" stroke="#26a69a" stroke-width="1"/>
<rect x="191.4" y="245.8" width="5.3" height="11.9" fill="#26a69a" rx="1"/>
<line x1="202.3" y1="235.3" x2="202.3" y2="252.7" stroke="#26a69a" stroke-width="1"/>
<rect x="199.6" y="245.2" width="5.3" height="1.2" fill="#26a69a" rx="1"/>
<line x1="210.5" y1="236.3" x2="210.5" y2="258.0" stroke="#26a69a" stroke-width="1"/>
<rect x="207.9" y="236.7" width="5.3" height="13.5" fill="#26a69a" rx="1"/>
<line x1="218.8" y1="230.4" x2="218.8" y2="244.5" stroke="#26a69a" stroke-width="1"/>
<rect x="216.2" y="235.5" width="5.3" height="7.3" fill="#26a69a" rx="1"/>
<line x1="227.1" y1="228.3" x2="227.1" y2="249.5" stroke="#ef5350" stroke-width="1"/>
<rect x="224.4" y="235.4" width="5.3" height="2.5" fill="#ef5350" rx="1"/>
<line x1="235.3" y1="229.8" x2="235.3" y2="254.1" stroke="#26a69a" stroke-width="1"/>
<rect x="232.7" y="239.2" width="5.3" height="2.0" fill="#26a69a" rx="1"/>
<line x1="243.6" y1="243.1" x2="243.6" y2="261.6" stroke="#ef5350" stroke-width="1"/>
<rect x="241.0" y="254.1" width="5.3" height="3.6" fill="#ef5350" rx="1"/>
<line x1="251.9" y1="201.3" x2="251.9" y2="255.4" stroke="#26a69a" stroke-width="1"/>
<rect x="249.2" y="208.8" width="5.3" height="45.9" fill="#26a69a" rx="1"/>
<line x1="260.1" y1="143.7" x2="260.1" y2="197.8" stroke="#26a69a" stroke-width="1"/>
<rect x="257.5" y="149.3" width="5.3" height="39.3" fill="#26a69a" rx="1"/>
<line x1="268.4" y1="117.0" x2="268.4" y2="152.3" stroke="#26a69a" stroke-width="1"/>
<rect x="265.8" y="130.8" width="5.3" height="3.0" fill="#26a69a" rx="1"/>
<line x1="276.7" y1="135.7" x2="276.7" y2="179.7" stroke="#ef5350" stroke-width="1"/>
<rect x="274.0" y="148.6" width="5.3" height="20.4" fill="#ef5350" rx="1"/>
<line x1="284.9" y1="171.2" x2="284.9" y2="218.2" stroke="#ef5350" stroke-width="1"/>
<rect x="282.3" y="180.1" width="5.3" height="33.8" fill="#ef5350" rx="1"/>
<line x1="293.2" y1="195.1" x2="293.2" y2="222.6" stroke="#ef5350" stroke-width="1"/>
<rect x="290.6" y="199.2" width="5.3" height="16.9" fill="#ef5350" rx="1"/>
<line x1="301.5" y1="215.0" x2="301.5" y2="250.8" stroke="#ef5350" stroke-width="1"/>
<rect x="298.8" y="222.4" width="5.3" height="21.6" fill="#ef5350" rx="1"/>
<line x1="309.7" y1="233.9" x2="309.7" y2="245.1" stroke="#26a69a" stroke-width="1"/>
<rect x="307.1" y="239.8" width="5.3" height="3.6" fill="#26a69a" rx="1"/>
<line x1="318.0" y1="237.4" x2="318.0" y2="280.9" stroke="#ef5350" stroke-width="1"/>
<rect x="315.4" y="247.0" width="5.3" height="12.6" fill="#ef5350" rx="1"/>
<line x1="326.3" y1="254.5" x2="326.3" y2="274.3" stroke="#26a69a" stroke-width="1"/>
<rect x="323.6" y="268.0" width="5.3" height="4.0" fill="#26a69a" rx="1"/>
<line x1="334.5" y1="262.1" x2="334.5" y2="281.7" stroke="#26a69a" stroke-width="1"/>
<rect x="331.9" y="264.1" width="5.3" height="10.4" fill="#26a69a" rx="1"/>
<line x1="342.8" y1="264.0" x2="342.8" y2="284.0" stroke="#ef5350" stroke-width="1"/>
<rect x="340.2" y="264.8" width="5.3" height="13.2" fill="#ef5350" rx="1"/>
<line x1="351.1" y1="246.5" x2="351.1" y2="270.3" stroke="#26a69a" stroke-width="1"/>
<rect x="348.4" y="247.7" width="5.3" height="21.1" fill="#26a69a" rx="1"/>
<line x1="359.3" y1="248.2" x2="359.3" y2="270.6" stroke="#ef5350" stroke-width="1"/>
<rect x="356.7" y="248.2" width="5.3" height="6.0" fill="#ef5350" rx="1"/>
<line x1="367.6" y1="241.4" x2="367.6" y2="269.3" stroke="#ef5350" stroke-width="1"/>
<rect x="365.0" y="261.0" width="5.3" height="5.1" fill="#ef5350" rx="1"/>
<line x1="375.9" y1="262.5" x2="375.9" y2="291.4" stroke="#ef5350" stroke-width="1"/>
<rect x="373.2" y="265.1" width="5.3" height="10.7" fill="#ef5350" rx="1"/>
<line x1="384.1" y1="274.0" x2="384.1" y2="317.6" stroke="#ef5350" stroke-width="1"/>
<rect x="381.5" y="288.1" width="5.3" height="28.1" fill="#ef5350" rx="1"/>
<line x1="392.4" y1="309.8" x2="392.4" y2="331.2" stroke="#ef5350" stroke-width="1"/>
<rect x="389.8" y="313.3" width="5.3" height="15.5" fill="#ef5350" rx="1"/>
<line x1="400.7" y1="323.0" x2="400.7" y2="348.9" stroke="#ef5350" stroke-width="1"/>
<rect x="398.0" y="340.5" width="5.3" height="2.8" fill="#ef5350" rx="1"/>
<line x1="408.9" y1="349.4" x2="408.9" y2="375.4" stroke="#ef5350" stroke-width="1"/>
<rect x="406.3" y="352.8" width="5.3" height="18.5" fill="#ef5350" rx="1"/>
<line x1="417.2" y1="340.7" x2="417.2" y2="366.0" stroke="#26a69a" stroke-width="1"/>
<rect x="414.6" y="345.9" width="5.3" height="17.5" fill="#26a69a" rx="1"/>
<line x1="425.5" y1="318.1" x2="425.5" y2="337.9" stroke="#ef5350" stroke-width="1"/>
<rect x="422.8" y="331.0" width="5.3" height="2.4" fill="#ef5350" rx="1"/>
<line x1="433.7" y1="319.9" x2="433.7" y2="338.5" stroke="#26a69a" stroke-width="1"/>
<rect x="431.1" y="329.0" width="5.3" height="7.8" fill="#26a69a" rx="1"/>
<line x1="442.0" y1="276.8" x2="442.0" y2="316.9" stroke="#26a69a" stroke-width="1"/>
<rect x="439.4" y="288.2" width="5.3" height="25.6" fill="#26a69a" rx="1"/>
<line x1="450.3" y1="255.9" x2="450.3" y2="278.2" stroke="#26a69a" stroke-width="1"/>
<rect x="447.6" y="272.1" width="5.3" height="1.4" fill="#26a69a" rx="1"/>
<line x1="458.5" y1="250.6" x2="458.5" y2="284.1" stroke="#26a69a" stroke-width="1"/>
<rect x="455.9" y="257.5" width="5.3" height="23.9" fill="#26a69a" rx="1"/>
<line x1="466.8" y1="228.8" x2="466.8" y2="262.3" stroke="#26a69a" stroke-width="1"/>
<rect x="464.2" y="249.2" width="5.3" height="2.9" fill="#26a69a" rx="1"/>
<line x1="475.1" y1="258.2" x2="475.1" y2="283.8" stroke="#26a69a" stroke-width="1"/>
<rect x="472.4" y="258.9" width="5.3" height="12.3" fill="#26a69a" rx="1"/>
<line x1="483.3" y1="272.6" x2="483.3" y2="292.3" stroke="#26a69a" stroke-width="1"/>
<rect x="480.7" y="273.3" width="5.3" height="5.9" fill="#26a69a" rx="1"/>
<line x1="491.6" y1="258.6" x2="491.6" y2="288.0" stroke="#ef5350" stroke-width="1"/>
<rect x="489.0" y="259.3" width="5.3" height="24.1" fill="#ef5350" rx="1"/>
<line x1="499.9" y1="265.7" x2="499.9" y2="286.1" stroke="#26a69a" stroke-width="1"/>
<rect x="497.2" y="268.7" width="5.3" height="12.3" fill="#26a69a" rx="1"/>
<line x1="508.1" y1="242.8" x2="508.1" y2="302.1" stroke="#26a69a" stroke-width="1"/>
<rect x="505.5" y="252.2" width="5.3" height="45.6" fill="#26a69a" rx="1"/>
<line x1="516.4" y1="237.9" x2="516.4" y2="255.9" stroke="#ef5350" stroke-width="1"/>
<rect x="513.8" y="249.4" width="5.3" height="2.6" fill="#ef5350" rx="1"/>
<line x1="524.7" y1="240.9" x2="524.7" y2="274.9" stroke="#26a69a" stroke-width="1"/>
<rect x="522.0" y="248.9" width="5.3" height="6.1" fill="#26a69a" rx="1"/>
<line x1="532.9" y1="247.4" x2="532.9" y2="273.2" stroke="#26a69a" stroke-width="1"/>
<rect x="530.3" y="258.2" width="5.3" height="2.7" fill="#26a69a" rx="1"/>
<line x1="541.2" y1="239.1" x2="541.2" y2="260.7" stroke="#26a69a" stroke-width="1"/>
<rect x="538.6" y="247.1" width="5.3" height="13.4" fill="#26a69a" rx="1"/>
<line x1="549.5" y1="247.8" x2="549.5" y2="263.4" stroke="#ef5350" stroke-width="1"/>
<rect x="546.8" y="251.7" width="5.3" height="5.3" fill="#ef5350" rx="1"/>
<line x1="557.7" y1="258.3" x2="557.7" y2="298.4" stroke="#ef5350" stroke-width="1"/>
<rect x="555.1" y="258.9" width="5.3" height="34.5" fill="#ef5350" rx="1"/>
<line x1="566.0" y1="285.2" x2="566.0" y2="310.7" stroke="#ef5350" stroke-width="1"/>
<rect x="563.4" y="287.2" width="5.3" height="11.6" fill="#ef5350" rx="1"/>
<line x1="574.3" y1="290.1" x2="574.3" y2="304.9" stroke="#ef5350" stroke-width="1"/>
<rect x="571.6" y="290.7" width="5.3" height="10.1" fill="#ef5350" rx="1"/>
<line x1="582.5" y1="258.1" x2="582.5" y2="290.1" stroke="#26a69a" stroke-width="1"/>
<rect x="579.9" y="262.0" width="5.3" height="24.2" fill="#26a69a" rx="1"/>
<line x1="590.8" y1="281.6" x2="590.8" y2="323.5" stroke="#ef5350" stroke-width="1"/>
<rect x="588.2" y="287.7" width="5.3" height="10.4" fill="#ef5350" rx="1"/>
<line x1="599.1" y1="281.2" x2="599.1" y2="303.0" stroke="#ef5350" stroke-width="1"/>
<rect x="596.4" y="296.0" width="5.3" height="4.5" fill="#ef5350" rx="1"/>
<line x1="607.3" y1="297.5" x2="607.3" y2="312.8" stroke="#26a69a" stroke-width="1"/>
<rect x="604.7" y="303.8" width="5.3" height="5.0" fill="#26a69a" rx="1"/>
<line x1="615.6" y1="298.7" x2="615.6" y2="315.7" stroke="#26a69a" stroke-width="1"/>
<rect x="613.0" y="300.2" width="5.3" height="3.5" fill="#26a69a" rx="1"/>
<line x1="623.9" y1="282.6" x2="623.9" y2="297.5" stroke="#ef5350" stroke-width="1"/>
<rect x="621.2" y="283.8" width="5.3" height="4.7" fill="#ef5350" rx="1"/>
<line x1="632.1" y1="113.3" x2="632.1" y2="209.1" stroke="#26a69a" stroke-width="1"/>
<rect x="629.5" y="121.7" width="5.3" height="78.9" fill="#26a69a" rx="1"/>
<line x1="640.4" y1="106.3" x2="640.4" y2="141.6" stroke="#ef5350" stroke-width="1"/>
<rect x="637.8" y="124.7" width="5.3" height="16.1" fill="#ef5350" rx="1"/>
<line x1="648.7" y1="142.7" x2="648.7" y2="166.6" stroke="#26a69a" stroke-width="1"/>
<rect x="646.0" y="152.1" width="5.3" height="1.2" fill="#26a69a" rx="1"/>
<line x1="656.9" y1="77.8" x2="656.9" y2="133.9" stroke="#26a69a" stroke-width="1"/>
<rect x="654.3" y="79.6" width="5.3" height="53.8" fill="#26a69a" rx="1"/>
<line x1="665.2" y1="45.4" x2="665.2" y2="84.7" stroke="#26a69a" stroke-width="1"/>
<rect x="662.6" y="65.1" width="5.3" height="19.0" fill="#26a69a" rx="1"/>
<line x1="673.5" y1="52.9" x2="673.5" y2="76.4" stroke="#26a69a" stroke-width="1"/>
<rect x="670.8" y="66.4" width="5.3" height="3.4" fill="#26a69a" rx="1"/>
<line x1="681.7" y1="65.7" x2="681.7" y2="96.1" stroke="#ef5350" stroke-width="1"/>
<rect x="679.1" y="70.3" width="5.3" height="13.7" fill="#ef5350" rx="1"/>
<line x1="690.0" y1="44.0" x2="690.0" y2="78.1" stroke="#26a69a" stroke-width="1"/>
<rect x="687.4" y="48.0" width="5.3" height="25.3" fill="#26a69a" rx="1"/>
<line x1="698.3" y1="42.8" x2="698.3" y2="71.5" stroke="#ef5350" stroke-width="1"/>
<rect x="695.6" y="45.9" width="5.3" height="24.5" fill="#ef5350" rx="1"/>
<line x1="706.5" y1="60.3" x2="706.5" y2="78.3" stroke="#ef5350" stroke-width="1"/>
<rect x="703.9" y="70.3" width="5.3" height="6.8" fill="#ef5350" rx="1"/>
<line x1="714.8" y1="66.2" x2="714.8" y2="85.9" stroke="#ef5350" stroke-width="1"/>
<rect x="712.2" y="79.8" width="5.3" height="1.9" fill="#ef5350" rx="1"/>
<line x1="723.1" y1="57.9" x2="723.1" y2="89.7" stroke="#26a69a" stroke-width="1"/>
<rect x="720.4" y="65.2" width="5.3" height="11.6" fill="#26a69a" rx="1"/>
<line x1="731.3" y1="59.5" x2="731.3" y2="79.5" stroke="#ef5350" stroke-width="1"/>
<rect x="728.7" y="62.1" width="5.3" height="8.7" fill="#ef5350" rx="1"/>
<line x1="739.6" y1="32.6" x2="739.6" y2="77.1" stroke="#26a69a" stroke-width="1"/>
<rect x="737.0" y="43.8" width="5.3" height="26.9" fill="#26a69a" rx="1"/>
<line x1="747.9" y1="49.2" x2="747.9" y2="82.7" stroke="#ef5350" stroke-width="1"/>
<rect x="745.2" y="55.3" width="5.3" height="6.8" fill="#ef5350" rx="1"/>
<text x="8" y="414" fill="#8b98a9" font-size="11">182.44</text>
<text x="752" y="414" text-anchor="end" fill="#8b98a9" font-size="11">106.37</text>
</svg>